<svg width="284" height="58" viewBox="0 0 284 58" fill="none" xmlns="http://www.w3.org/2000/svg">
<path d="M6 0.5H278C281.038 0.5 283.5 2.96243 283.5 6V52C283.5 55.0376 281.038 57.5 278 57.5H6C2.96243 57.5 0.5 55.0376 0.5 52V6L0.506836 5.7168C0.654222 2.81084 3.05741 0.5 6 0.5Z" fill="white"/>
<path d="M6 0.5H278C281.038 0.5 283.5 2.96243 283.5 6V52C283.5 55.0376 281.038 57.5 278 57.5H6C2.96243 57.5 0.5 55.0376 0.5 52V6L0.506836 5.7168C0.654222 2.81084 3.05741 0.5 6 0.5Z" stroke="#282828"/>
<path d="M107.642 36L113.942 22H116.502L122.822 36H120.102L114.682 23.38H115.722L110.322 36H107.642ZM110.542 32.76L111.242 30.72H118.802L119.502 32.76H110.542ZM128.785 36.14C127.758 36.14 126.832 35.9133 126.005 35.46C125.192 34.9933 124.552 34.3533 124.085 33.54C123.618 32.7267 123.385 31.7667 123.385 30.66C123.385 29.5533 123.618 28.5933 124.085 27.78C124.552 26.9667 125.192 26.3333 126.005 25.88C126.832 25.4267 127.758 25.2 128.785 25.2C129.678 25.2 130.478 25.4 131.185 25.8C131.892 26.1867 132.452 26.78 132.865 27.58C133.278 28.38 133.485 29.4067 133.485 30.66C133.485 31.9 133.285 32.9267 132.885 33.74C132.485 34.54 131.932 35.14 131.225 35.54C130.518 35.94 129.705 36.14 128.785 36.14ZM129.085 34C129.685 34 130.218 33.8667 130.685 33.6C131.165 33.3333 131.545 32.9467 131.825 32.44C132.118 31.9333 132.265 31.34 132.265 30.66C132.265 29.9667 132.118 29.3733 131.825 28.88C131.545 28.3733 131.165 27.9867 130.685 27.72C130.218 27.4533 129.685 27.32 129.085 27.32C128.485 27.32 127.945 27.4533 127.465 27.72C126.998 27.9867 126.618 28.3733 126.325 28.88C126.045 29.3733 125.905 29.9667 125.905 30.66C125.905 31.34 126.045 31.9333 126.325 32.44C126.618 32.9467 126.998 33.3333 127.465 33.6C127.945 33.8667 128.485 34 129.085 34ZM132.325 36V33.48L132.425 30.64L132.225 27.8V21.16H134.705V36H132.325ZM142.515 36.14C141.489 36.14 140.562 35.9133 139.735 35.46C138.922 34.9933 138.282 34.3533 137.815 33.54C137.349 32.7267 137.115 31.7667 137.115 30.66C137.115 29.5533 137.349 28.5933 137.815 27.78C138.282 26.9667 138.922 26.3333 139.735 25.88C140.562 25.4267 141.489 25.2 142.515 25.2C143.409 25.2 144.209 25.4 144.915 25.8C145.622 26.1867 146.182 26.78 146.595 27.58C147.009 28.38 147.215 29.4067 147.215 30.66C147.215 31.9 147.015 32.9267 146.615 33.74C146.215 34.54 145.662 35.14 144.955 35.54C144.249 35.94 143.435 36.14 142.515 36.14ZM142.815 34C143.415 34 143.949 33.8667 144.415 33.6C144.895 33.3333 145.275 32.9467 145.555 32.44C145.849 31.9333 145.995 31.34 145.995 30.66C145.995 29.9667 145.849 29.3733 145.555 28.88C145.275 28.3733 144.895 27.9867 144.415 27.72C143.949 27.4533 143.415 27.32 142.815 27.32C142.215 27.32 141.675 27.4533 141.195 27.72C140.729 27.9867 140.349 28.3733 140.055 28.88C139.775 29.3733 139.635 29.9667 139.635 30.66C139.635 31.34 139.775 31.9333 140.055 32.44C140.349 32.9467 140.729 33.3333 141.195 33.6C141.675 33.8667 142.215 34 142.815 34ZM146.055 36V33.48L146.155 30.64L145.955 27.8V21.16H148.435V36H146.055ZM156.746 36.14C155.559 36.14 154.519 35.9067 153.626 35.44C152.746 34.96 152.059 34.3067 151.566 33.48C151.086 32.6533 150.846 31.7133 150.846 30.66C150.846 29.5933 151.079 28.6533 151.546 27.84C152.026 27.0133 152.679 26.3667 153.506 25.9C154.346 25.4333 155.299 25.2 156.366 25.2C157.406 25.2 158.333 25.4267 159.146 25.88C159.959 26.3333 160.599 26.9733 161.066 27.8C161.533 28.6267 161.766 29.6 161.766 30.72C161.766 30.8267 161.759 30.9467 161.746 31.08C161.746 31.2133 161.739 31.34 161.726 31.46H152.826V29.8H160.406L159.426 30.32C159.439 29.7067 159.313 29.1667 159.046 28.7C158.779 28.2333 158.413 27.8667 157.946 27.6C157.493 27.3333 156.966 27.2 156.366 27.2C155.753 27.2 155.213 27.3333 154.746 27.6C154.293 27.8667 153.933 28.24 153.666 28.72C153.413 29.1867 153.286 29.74 153.286 30.38V30.78C153.286 31.42 153.433 31.9867 153.726 32.48C154.019 32.9733 154.433 33.3533 154.966 33.62C155.499 33.8867 156.113 34.02 156.806 34.02C157.406 34.02 157.946 33.9267 158.426 33.74C158.906 33.5533 159.333 33.26 159.706 32.86L161.046 34.4C160.566 34.96 159.959 35.3933 159.226 35.7C158.506 35.9933 157.679 36.14 156.746 36.14ZM168.687 36.14C167.661 36.14 166.734 35.9133 165.907 35.46C165.094 34.9933 164.454 34.3533 163.987 33.54C163.521 32.7267 163.287 31.7667 163.287 30.66C163.287 29.5533 163.521 28.5933 163.987 27.78C164.454 26.9667 165.094 26.3333 165.907 25.88C166.734 25.4267 167.661 25.2 168.687 25.2C169.581 25.2 170.381 25.4 171.087 25.8C171.794 26.1867 172.354 26.78 172.767 27.58C173.181 28.38 173.387 29.4067 173.387 30.66C173.387 31.9 173.187 32.9267 172.787 33.74C172.387 34.54 171.834 35.14 171.127 35.54C170.421 35.94 169.607 36.14 168.687 36.14ZM168.987 34C169.587 34 170.121 33.8667 170.587 33.6C171.067 33.3333 171.447 32.9467 171.727 32.44C172.021 31.9333 172.167 31.34 172.167 30.66C172.167 29.9667 172.021 29.3733 171.727 28.88C171.447 28.3733 171.067 27.9867 170.587 27.72C170.121 27.4533 169.587 27.32 168.987 27.32C168.387 27.32 167.847 27.4533 167.367 27.72C166.901 27.9867 166.521 28.3733 166.227 28.88C165.947 29.3733 165.807 29.9667 165.807 30.66C165.807 31.34 165.947 31.9333 166.227 32.44C166.521 32.9467 166.901 33.3333 167.367 33.6C167.847 33.8667 168.387 34 168.987 34ZM172.227 36V33.48L172.327 30.64L172.127 27.8V21.16H174.607V36H172.227Z" fill="#282828"/>
</svg>
