<svg width="26" height="26" viewBox="0 0 26 26" fill="none" xmlns="http://www.w3.org/2000/svg">
<g clip-path="url(#clip0_1_360)">
<circle cx="13" cy="13" r="13" fill="#0D50FF"/>
<path d="M9.09466 17V9.2L9.77866 9.908H7.31866V8.6H10.6547V17H9.09466ZM12.213 17V15.956L15.549 12.788C15.829 12.524 16.037 12.292 16.173 12.092C16.309 11.892 16.397 11.708 16.437 11.54C16.485 11.364 16.509 11.2 16.509 11.048C16.509 10.664 16.377 10.368 16.113 10.16C15.849 9.944 15.461 9.836 14.949 9.836C14.541 9.836 14.169 9.908 13.833 10.052C13.505 10.196 13.221 10.416 12.981 10.712L11.889 9.872C12.217 9.432 12.657 9.092 13.209 8.852C13.769 8.604 14.393 8.48 15.081 8.48C15.689 8.48 16.217 8.58 16.665 8.78C17.121 8.972 17.469 9.248 17.709 9.608C17.957 9.968 18.081 10.396 18.081 10.892C18.081 11.164 18.045 11.436 17.973 11.708C17.901 11.972 17.765 12.252 17.565 12.548C17.365 12.844 17.073 13.176 16.689 13.544L13.821 16.268L13.497 15.68H18.405V17H12.213Z" fill="white"/>
</g>
<defs>
<clipPath id="clip0_1_360">
<rect width="26" height="26" fill="white"/>
</clipPath>
</defs>
</svg>
