<svg width="516" height="58" viewBox="0 0 516 58" fill="none" xmlns="http://www.w3.org/2000/svg">
<path d="M0 6C0 2.68629 2.68629 0 6 0H510C513.314 0 516 2.68629 516 6V52C516 55.3137 513.314 58 510 58H6C2.68629 58 0 55.3137 0 52V6Z" fill="#F1F3F4"/>
<path d="M159.685 36V22H165.445C166.685 22 167.745 22.2 168.625 22.6C169.518 23 170.205 23.5733 170.685 24.32C171.165 25.0667 171.405 25.9533 171.405 26.98C171.405 28.0067 171.165 28.8933 170.685 29.64C170.205 30.3733 169.518 30.94 168.625 31.34C167.745 31.7267 166.685 31.92 165.445 31.92H161.125L162.285 30.74V36H159.685ZM168.845 36L165.305 30.92H168.085L171.645 36H168.845ZM162.285 31.02L161.125 29.78H165.325C166.471 29.78 167.331 29.5333 167.905 29.04C168.491 28.5467 168.785 27.86 168.785 26.98C168.785 26.0867 168.491 25.4 167.905 24.92C167.331 24.44 166.471 24.2 165.325 24.2H161.125L162.285 22.92V31.02ZM179.094 36.14C177.907 36.14 176.867 35.9067 175.974 35.44C175.094 34.96 174.407 34.3067 173.914 33.48C173.434 32.6533 173.194 31.7133 173.194 30.66C173.194 29.5933 173.427 28.6533 173.894 27.84C174.374 27.0133 175.027 26.3667 175.854 25.9C176.694 25.4333 177.647 25.2 178.714 25.2C179.754 25.2 180.68 25.4267 181.494 25.88C182.307 26.3333 182.947 26.9733 183.414 27.8C183.88 28.6267 184.114 29.6 184.114 30.72C184.114 30.8267 184.107 30.9467 184.094 31.08C184.094 31.2133 184.087 31.34 184.074 31.46H175.174V29.8H182.754L181.774 30.32C181.787 29.7067 181.66 29.1667 181.394 28.7C181.127 28.2333 180.76 27.8667 180.294 27.6C179.84 27.3333 179.314 27.2 178.714 27.2C178.1 27.2 177.56 27.3333 177.094 27.6C176.64 27.8667 176.28 28.24 176.014 28.72C175.76 29.1867 175.634 29.74 175.634 30.38V30.78C175.634 31.42 175.78 31.9867 176.074 32.48C176.367 32.9733 176.78 33.3533 177.314 33.62C177.847 33.8867 178.46 34.02 179.154 34.02C179.754 34.02 180.294 33.9267 180.774 33.74C181.254 33.5533 181.68 33.26 182.054 32.86L183.394 34.4C182.914 34.96 182.307 35.3933 181.574 35.7C180.854 35.9933 180.027 36.14 179.094 36.14ZM191.035 36.14C190.008 36.14 189.082 35.9133 188.255 35.46C187.442 35.0067 186.802 34.3733 186.335 33.56C185.868 32.7333 185.635 31.7667 185.635 30.66C185.635 29.5533 185.868 28.5933 186.335 27.78C186.802 26.9667 187.442 26.3333 188.255 25.88C189.082 25.4267 190.008 25.2 191.035 25.2C191.955 25.2 192.762 25.4 193.455 25.8C194.162 26.1867 194.715 26.78 195.115 27.58C195.528 28.38 195.735 29.4067 195.735 30.66C195.735 31.9 195.522 32.9267 195.095 33.74C194.682 34.54 194.122 35.14 193.415 35.54C192.708 35.94 191.915 36.14 191.035 36.14ZM191.315 34C191.915 34 192.455 33.8667 192.935 33.6C193.415 33.3333 193.795 32.9467 194.075 32.44C194.355 31.9333 194.495 31.34 194.495 30.66C194.495 29.9667 194.355 29.3733 194.075 28.88C193.795 28.3733 193.415 27.9867 192.935 27.72C192.455 27.4533 191.915 27.32 191.315 27.32C190.715 27.32 190.175 27.4533 189.695 27.72C189.228 27.9867 188.855 28.3733 188.575 28.88C188.295 29.3733 188.155 29.9667 188.155 30.66C188.155 31.34 188.295 31.9333 188.575 32.44C188.855 32.9467 189.228 33.3333 189.695 33.6C190.175 33.8667 190.715 34 191.315 34ZM194.455 39.88V33.52L194.655 30.68L194.575 27.84V25.32H196.955V39.88H194.455ZM204.746 36.14C203.839 36.14 203.039 35.9733 202.346 35.64C201.653 35.2933 201.113 34.7733 200.726 34.08C200.339 33.3733 200.146 32.4867 200.146 31.42V25.32H202.646V31.08C202.646 32.04 202.859 32.76 203.286 33.24C203.726 33.7067 204.346 33.94 205.146 33.94C205.733 33.94 206.239 33.82 206.666 33.58C207.106 33.34 207.446 32.98 207.686 32.5C207.939 32.02 208.066 31.4267 208.066 30.72V25.32H210.566V36H208.186V33.12L208.606 34C208.246 34.6933 207.719 35.2267 207.026 35.6C206.333 35.96 205.573 36.14 204.746 36.14ZM218.859 36.14C217.673 36.14 216.633 35.9067 215.739 35.44C214.859 34.96 214.173 34.3067 213.679 33.48C213.199 32.6533 212.959 31.7133 212.959 30.66C212.959 29.5933 213.193 28.6533 213.659 27.84C214.139 27.0133 214.793 26.3667 215.619 25.9C216.459 25.4333 217.413 25.2 218.479 25.2C219.519 25.2 220.446 25.4267 221.259 25.88C222.073 26.3333 222.713 26.9733 223.179 27.8C223.646 28.6267 223.879 29.6 223.879 30.72C223.879 30.8267 223.873 30.9467 223.859 31.08C223.859 31.2133 223.853 31.34 223.839 31.46H214.939V29.8H222.519L221.539 30.32C221.553 29.7067 221.426 29.1667 221.159 28.7C220.893 28.2333 220.526 27.8667 220.059 27.6C219.606 27.3333 219.079 27.2 218.479 27.2C217.866 27.2 217.326 27.3333 216.859 27.6C216.406 27.8667 216.046 28.24 215.779 28.72C215.526 29.1867 215.399 29.74 215.399 30.38V30.78C215.399 31.42 215.546 31.9867 215.839 32.48C216.133 32.9733 216.546 33.3533 217.079 33.62C217.613 33.8867 218.226 34.02 218.919 34.02C219.519 34.02 220.059 33.9267 220.539 33.74C221.019 33.5533 221.446 33.26 221.819 32.86L223.159 34.4C222.679 34.96 222.073 35.3933 221.339 35.7C220.619 35.9933 219.793 36.14 218.859 36.14ZM229.581 36.14C228.687 36.14 227.827 36.0267 227.001 35.8C226.187 35.56 225.541 35.2733 225.061 34.94L226.021 33.04C226.501 33.3467 227.074 33.6 227.741 33.8C228.407 34 229.074 34.1 229.741 34.1C230.527 34.1 231.094 33.9933 231.441 33.78C231.801 33.5667 231.981 33.28 231.981 32.92C231.981 32.6267 231.861 32.4067 231.621 32.26C231.381 32.1 231.067 31.98 230.681 31.9C230.294 31.82 229.861 31.7467 229.381 31.68C228.914 31.6133 228.441 31.5267 227.961 31.42C227.494 31.3 227.067 31.1333 226.681 30.92C226.294 30.6933 225.981 30.3933 225.741 30.02C225.501 29.6467 225.381 29.1533 225.381 28.54C225.381 27.86 225.574 27.2733 225.961 26.78C226.347 26.2733 226.887 25.8867 227.581 25.62C228.287 25.34 229.121 25.2 230.081 25.2C230.801 25.2 231.527 25.28 232.261 25.44C232.994 25.6 233.601 25.8267 234.081 26.12L233.121 28.02C232.614 27.7133 232.101 27.5067 231.581 27.4C231.074 27.28 230.567 27.22 230.061 27.22C229.301 27.22 228.734 27.3333 228.361 27.56C228.001 27.7867 227.821 28.0733 227.821 28.42C227.821 28.74 227.941 28.98 228.181 29.14C228.421 29.3 228.734 29.4267 229.121 29.52C229.507 29.6133 229.934 29.6933 230.401 29.76C230.881 29.8133 231.354 29.9 231.821 30.02C232.287 30.14 232.714 30.3067 233.101 30.52C233.501 30.72 233.821 31.0067 234.061 31.38C234.301 31.7533 234.421 32.24 234.421 32.84C234.421 33.5067 234.221 34.0867 233.821 34.58C233.434 35.0733 232.881 35.46 232.161 35.74C231.441 36.0067 230.581 36.14 229.581 36.14ZM240.594 36.14C239.42 36.14 238.514 35.84 237.874 35.24C237.234 34.6267 236.914 33.7267 236.914 32.54V22.96H239.414V32.48C239.414 32.9867 239.54 33.38 239.794 33.66C240.06 33.94 240.427 34.08 240.894 34.08C241.454 34.08 241.92 33.9333 242.294 33.64L242.994 35.42C242.7 35.66 242.34 35.84 241.914 35.96C241.487 36.08 241.047 36.14 240.594 36.14ZM235.154 27.4V25.4H242.274V27.4H235.154ZM255.158 36.2C254.064 36.2 253.018 36.0467 252.018 35.74C251.018 35.42 250.224 35.0133 249.638 34.52L250.538 32.5C251.098 32.94 251.791 33.3067 252.618 33.6C253.444 33.8933 254.291 34.04 255.158 34.04C255.891 34.04 256.484 33.96 256.938 33.8C257.391 33.64 257.724 33.4267 257.938 33.16C258.151 32.88 258.258 32.5667 258.258 32.22C258.258 31.7933 258.104 31.4533 257.798 31.2C257.491 30.9333 257.091 30.7267 256.598 30.58C256.118 30.42 255.578 30.2733 254.978 30.14C254.391 30.0067 253.798 29.8533 253.198 29.68C252.611 29.4933 252.071 29.26 251.577 28.98C251.098 28.6867 250.704 28.3 250.398 27.82C250.091 27.34 249.938 26.7267 249.938 25.98C249.938 25.22 250.138 24.5267 250.538 23.9C250.951 23.26 251.571 22.7533 252.398 22.38C253.238 21.9933 254.298 21.8 255.578 21.8C256.418 21.8 257.251 21.9067 258.078 22.12C258.904 22.3333 259.624 22.64 260.237 23.04L259.418 25.06C258.791 24.6867 258.144 24.4133 257.478 24.24C256.811 24.0533 256.171 23.96 255.558 23.96C254.838 23.96 254.251 24.0467 253.798 24.22C253.358 24.3933 253.031 24.62 252.818 24.9C252.618 25.18 252.518 25.5 252.518 25.86C252.518 26.2867 252.664 26.6333 252.958 26.9C253.264 27.1533 253.658 27.3533 254.138 27.5C254.631 27.6467 255.178 27.7933 255.778 27.94C256.378 28.0733 256.971 28.2267 257.558 28.4C258.158 28.5733 258.698 28.8 259.178 29.08C259.671 29.36 260.064 29.74 260.358 30.22C260.664 30.7 260.818 31.3067 260.818 32.04C260.818 32.7867 260.611 33.48 260.198 34.12C259.798 34.7467 259.178 35.2533 258.338 35.64C257.498 36.0133 256.438 36.2 255.158 36.2ZM267.676 36.14C266.769 36.14 265.969 35.9733 265.276 35.64C264.582 35.2933 264.042 34.7733 263.656 34.08C263.269 33.3733 263.076 32.4867 263.076 31.42V25.32H265.576V31.08C265.576 32.04 265.789 32.76 266.216 33.24C266.656 33.7067 267.276 33.94 268.076 33.94C268.662 33.94 269.169 33.82 269.596 33.58C270.036 33.34 270.376 32.98 270.616 32.5C270.869 32.02 270.996 31.4267 270.996 30.72V25.32H273.496V36H271.116V33.12L271.536 34C271.176 34.6933 270.649 35.2267 269.956 35.6C269.262 35.96 268.502 36.14 267.676 36.14ZM282.689 36.14C281.782 36.14 280.976 35.94 280.269 35.54C279.562 35.14 279.002 34.54 278.589 33.74C278.189 32.9267 277.989 31.9 277.989 30.66C277.989 29.4067 278.196 28.38 278.609 27.58C279.036 26.78 279.602 26.1867 280.309 25.8C281.029 25.4 281.822 25.2 282.689 25.2C283.742 25.2 284.669 25.4267 285.469 25.88C286.282 26.3333 286.922 26.9667 287.389 27.78C287.869 28.5933 288.109 29.5533 288.109 30.66C288.109 31.7667 287.869 32.7267 287.389 33.54C286.922 34.3533 286.282 34.9933 285.469 35.46C284.669 35.9133 283.742 36.14 282.689 36.14ZM276.769 36V21.16H279.269V27.8L279.069 30.64L279.149 33.48V36H276.769ZM282.409 34C283.009 34 283.542 33.8667 284.009 33.6C284.489 33.3333 284.869 32.9467 285.149 32.44C285.429 31.9333 285.569 31.34 285.569 30.66C285.569 29.9667 285.429 29.3733 285.149 28.88C284.869 28.3733 284.489 27.9867 284.009 27.72C283.542 27.4533 283.009 27.32 282.409 27.32C281.809 27.32 281.269 27.4533 280.789 27.72C280.309 27.9867 279.929 28.3733 279.649 28.88C279.369 29.3733 279.229 29.9667 279.229 30.66C279.229 31.34 279.369 31.9333 279.649 32.44C279.929 32.9467 280.309 33.3333 280.789 33.6C281.269 33.8667 281.809 34 282.409 34ZM303.96 25.2C304.813 25.2 305.567 25.3667 306.22 25.7C306.887 26.0333 307.407 26.5467 307.78 27.24C308.153 27.92 308.34 28.8 308.34 29.88V36H305.84V30.2C305.84 29.2533 305.633 28.5467 305.22 28.08C304.807 27.6133 304.213 27.38 303.44 27.38C302.893 27.38 302.407 27.5 301.98 27.74C301.567 27.98 301.24 28.3333 301 28.8C300.773 29.2667 300.66 29.86 300.66 30.58V36H298.16V30.2C298.16 29.2533 297.953 28.5467 297.54 28.08C297.127 27.6133 296.533 27.38 295.76 27.38C295.213 27.38 294.727 27.5 294.3 27.74C293.887 27.98 293.56 28.3333 293.32 28.8C293.093 29.2667 292.98 29.86 292.98 30.58V36H290.48V25.32H292.86V28.16L292.44 27.32C292.8 26.6267 293.32 26.1 294 25.74C294.693 25.38 295.48 25.2 296.36 25.2C297.36 25.2 298.227 25.4467 298.96 25.94C299.707 26.4333 300.2 27.18 300.44 28.18L299.46 27.84C299.807 27.04 300.38 26.4 301.18 25.92C301.98 25.44 302.907 25.2 303.96 25.2ZM311.535 36V25.32H314.035V36H311.535ZM312.795 23.56C312.328 23.56 311.941 23.4133 311.635 23.12C311.341 22.8267 311.195 22.4733 311.195 22.06C311.195 21.6333 311.341 21.28 311.635 21C311.941 20.7067 312.328 20.56 312.795 20.56C313.261 20.56 313.641 20.7 313.935 20.98C314.241 21.2467 314.395 21.5867 314.395 22C314.395 22.44 314.248 22.8133 313.955 23.12C313.661 23.4133 313.275 23.56 312.795 23.56ZM321.336 36.14C320.162 36.14 319.256 35.84 318.616 35.24C317.976 34.6267 317.656 33.7267 317.656 32.54V22.96H320.156V32.48C320.156 32.9867 320.282 33.38 320.536 33.66C320.802 33.94 321.169 34.08 321.636 34.08C322.196 34.08 322.662 33.9333 323.036 33.64L323.736 35.42C323.442 35.66 323.082 35.84 322.656 35.96C322.229 36.08 321.789 36.14 321.336 36.14ZM315.896 27.4V25.4H323.016V27.4H315.896ZM329.558 36.14C328.385 36.14 327.478 35.84 326.838 35.24C326.198 34.6267 325.878 33.7267 325.878 32.54V22.96H328.378V32.48C328.378 32.9867 328.505 33.38 328.758 33.66C329.025 33.94 329.392 34.08 329.858 34.08C330.418 34.08 330.885 33.9333 331.258 33.64L331.958 35.42C331.665 35.66 331.305 35.84 330.878 35.96C330.452 36.08 330.012 36.14 329.558 36.14ZM324.118 27.4V25.4H331.238V27.4H324.118ZM338.683 36.14C337.497 36.14 336.457 35.9067 335.563 35.44C334.683 34.96 333.997 34.3067 333.503 33.48C333.023 32.6533 332.783 31.7133 332.783 30.66C332.783 29.5933 333.017 28.6533 333.483 27.84C333.963 27.0133 334.617 26.3667 335.443 25.9C336.283 25.4333 337.237 25.2 338.303 25.2C339.343 25.2 340.27 25.4267 341.083 25.88C341.897 26.3333 342.537 26.9733 343.003 27.8C343.47 28.6267 343.703 29.6 343.703 30.72C343.703 30.8267 343.697 30.9467 343.683 31.08C343.683 31.2133 343.677 31.34 343.663 31.46H334.763V29.8H342.343L341.363 30.32C341.377 29.7067 341.25 29.1667 340.983 28.7C340.717 28.2333 340.35 27.8667 339.883 27.6C339.43 27.3333 338.903 27.2 338.303 27.2C337.69 27.2 337.15 27.3333 336.683 27.6C336.23 27.8667 335.87 28.24 335.603 28.72C335.35 29.1867 335.223 29.74 335.223 30.38V30.78C335.223 31.42 335.37 31.9867 335.663 32.48C335.957 32.9733 336.37 33.3533 336.903 33.62C337.437 33.8867 338.05 34.02 338.743 34.02C339.343 34.02 339.883 33.9267 340.363 33.74C340.843 33.5533 341.27 33.26 341.643 32.86L342.983 34.4C342.503 34.96 341.897 35.3933 341.163 35.7C340.443 35.9933 339.617 36.14 338.683 36.14ZM350.625 36.14C349.598 36.14 348.672 35.9133 347.845 35.46C347.032 34.9933 346.392 34.3533 345.925 33.54C345.458 32.7267 345.225 31.7667 345.225 30.66C345.225 29.5533 345.458 28.5933 345.925 27.78C346.392 26.9667 347.032 26.3333 347.845 25.88C348.672 25.4267 349.598 25.2 350.625 25.2C351.518 25.2 352.318 25.4 353.025 25.8C353.732 26.1867 354.292 26.78 354.705 27.58C355.118 28.38 355.325 29.4067 355.325 30.66C355.325 31.9 355.125 32.9267 354.725 33.74C354.325 34.54 353.772 35.14 353.065 35.54C352.358 35.94 351.545 36.14 350.625 36.14ZM350.925 34C351.525 34 352.058 33.8667 352.525 33.6C353.005 33.3333 353.385 32.9467 353.665 32.44C353.958 31.9333 354.105 31.34 354.105 30.66C354.105 29.9667 353.958 29.3733 353.665 28.88C353.385 28.3733 353.005 27.9867 352.525 27.72C352.058 27.4533 351.525 27.32 350.925 27.32C350.325 27.32 349.785 27.4533 349.305 27.72C348.838 27.9867 348.458 28.3733 348.165 28.88C347.885 29.3733 347.745 29.9667 347.745 30.66C347.745 31.34 347.885 31.9333 348.165 32.44C348.458 32.9467 348.838 33.3333 349.305 33.6C349.785 33.8667 350.325 34 350.925 34ZM354.165 36V33.48L354.265 30.64L354.065 27.8V21.16H356.545V36H354.165Z" fill="#0D50FF"/>
</svg>
