<svg width="516" height="58" viewBox="0 0 516 58" fill="none" xmlns="http://www.w3.org/2000/svg">
<path d="M0 6C0 2.68629 2.68629 0 6 0H510C513.314 0 516 2.68629 516 6V52C516 55.3137 513.314 58 510 58H6C2.68629 58 0 55.3137 0 52V6Z" fill="#282828"/>
<path d="M191.664 36.2C190.571 36.2 189.564 36.0267 188.644 35.68C187.737 35.32 186.944 34.82 186.264 34.18C185.584 33.5267 185.057 32.76 184.684 31.88C184.311 31 184.124 30.04 184.124 29C184.124 27.96 184.311 27 184.684 26.12C185.057 25.24 185.584 24.48 186.264 23.84C186.957 23.1867 187.764 22.6867 188.684 22.34C189.604 21.98 190.611 21.8 191.704 21.8C192.891 21.8 193.957 21.9933 194.904 22.38C195.864 22.7667 196.671 23.3333 197.324 24.08L195.684 25.68C195.137 25.1333 194.544 24.7333 193.904 24.48C193.277 24.2133 192.584 24.08 191.824 24.08C191.091 24.08 190.411 24.2 189.784 24.44C189.157 24.68 188.617 25.02 188.164 25.46C187.711 25.9 187.357 26.42 187.104 27.02C186.864 27.62 186.744 28.28 186.744 29C186.744 29.7067 186.864 30.36 187.104 30.96C187.357 31.56 187.711 32.0867 188.164 32.54C188.617 32.98 189.151 33.32 189.764 33.56C190.377 33.8 191.057 33.92 191.804 33.92C192.497 33.92 193.164 33.8133 193.804 33.6C194.457 33.3733 195.077 33 195.664 32.48L197.144 34.42C196.411 35.0067 195.557 35.4533 194.584 35.76C193.624 36.0533 192.651 36.2 191.664 36.2ZM194.684 34.08V28.84H197.144V34.42L194.684 34.08ZM205.353 36.14C204.167 36.14 203.127 35.9067 202.233 35.44C201.353 34.96 200.667 34.3067 200.173 33.48C199.693 32.6533 199.453 31.7133 199.453 30.66C199.453 29.5933 199.687 28.6533 200.153 27.84C200.633 27.0133 201.287 26.3667 202.113 25.9C202.953 25.4333 203.907 25.2 204.973 25.2C206.013 25.2 206.94 25.4267 207.753 25.88C208.567 26.3333 209.207 26.9733 209.673 27.8C210.14 28.6267 210.373 29.6 210.373 30.72C210.373 30.8267 210.367 30.9467 210.353 31.08C210.353 31.2133 210.347 31.34 210.333 31.46H201.433V29.8H209.013L208.033 30.32C208.047 29.7067 207.92 29.1667 207.653 28.7C207.387 28.2333 207.02 27.8667 206.553 27.6C206.1 27.3333 205.573 27.2 204.973 27.2C204.36 27.2 203.82 27.3333 203.353 27.6C202.9 27.8667 202.54 28.24 202.273 28.72C202.02 29.1867 201.893 29.74 201.893 30.38V30.78C201.893 31.42 202.04 31.9867 202.333 32.48C202.627 32.9733 203.04 33.3533 203.573 33.62C204.107 33.8867 204.72 34.02 205.413 34.02C206.013 34.02 206.553 33.9267 207.033 33.74C207.513 33.5533 207.94 33.26 208.313 32.86L209.653 34.4C209.173 34.96 208.567 35.3933 207.833 35.7C207.113 35.9933 206.287 36.14 205.353 36.14ZM216.795 36.14C215.621 36.14 214.715 35.84 214.075 35.24C213.435 34.6267 213.115 33.7267 213.115 32.54V22.96H215.615V32.48C215.615 32.9867 215.741 33.38 215.995 33.66C216.261 33.94 216.628 34.08 217.095 34.08C217.655 34.08 218.121 33.9333 218.495 33.64L219.195 35.42C218.901 35.66 218.541 35.84 218.115 35.96C217.688 36.08 217.248 36.14 216.795 36.14ZM211.355 27.4V25.4H218.475V27.4H211.355ZM233.359 36V33.84L233.219 33.38V29.6C233.219 28.8667 232.999 28.3 232.559 27.9C232.119 27.4867 231.452 27.28 230.559 27.28C229.959 27.28 229.365 27.3733 228.779 27.56C228.205 27.7467 227.719 28.0067 227.319 28.34L226.339 26.52C226.912 26.08 227.592 25.7533 228.379 25.54C229.179 25.3133 230.005 25.2 230.859 25.2C232.405 25.2 233.599 25.5733 234.439 26.32C235.292 27.0533 235.719 28.1933 235.719 29.74V36H233.359ZM229.999 36.14C229.199 36.14 228.499 36.0067 227.899 35.74C227.299 35.46 226.832 35.08 226.499 34.6C226.179 34.1067 226.019 33.5533 226.019 32.94C226.019 32.34 226.159 31.8 226.439 31.32C226.732 30.84 227.205 30.46 227.859 30.18C228.512 29.9 229.379 29.76 230.459 29.76H233.559V31.42H230.639C229.785 31.42 229.212 31.56 228.919 31.84C228.625 32.1067 228.479 32.44 228.479 32.84C228.479 33.2933 228.659 33.6533 229.019 33.92C229.379 34.1867 229.879 34.32 230.519 34.32C231.132 34.32 231.679 34.18 232.159 33.9C232.652 33.62 233.005 33.2067 233.219 32.66L233.639 34.16C233.399 34.7867 232.965 35.2733 232.339 35.62C231.725 35.9667 230.945 36.14 229.999 36.14ZM248.974 36.14C247.948 36.14 247.021 35.9133 246.194 35.46C245.381 34.9933 244.741 34.3533 244.274 33.54C243.808 32.7267 243.574 31.7667 243.574 30.66C243.574 29.5533 243.808 28.5933 244.274 27.78C244.741 26.9667 245.381 26.3333 246.194 25.88C247.021 25.4267 247.948 25.2 248.974 25.2C249.868 25.2 250.668 25.4 251.374 25.8C252.081 26.1867 252.641 26.78 253.054 27.58C253.468 28.38 253.674 29.4067 253.674 30.66C253.674 31.9 253.474 32.9267 253.074 33.74C252.674 34.54 252.121 35.14 251.414 35.54C250.708 35.94 249.894 36.14 248.974 36.14ZM249.274 34C249.874 34 250.408 33.8667 250.874 33.6C251.354 33.3333 251.734 32.9467 252.014 32.44C252.308 31.9333 252.454 31.34 252.454 30.66C252.454 29.9667 252.308 29.3733 252.014 28.88C251.734 28.3733 251.354 27.9867 250.874 27.72C250.408 27.4533 249.874 27.32 249.274 27.32C248.674 27.32 248.134 27.4533 247.654 27.72C247.188 27.9867 246.808 28.3733 246.514 28.88C246.234 29.3733 246.094 29.9667 246.094 30.66C246.094 31.34 246.234 31.9333 246.514 32.44C246.808 32.9467 247.188 33.3333 247.654 33.6C248.134 33.8667 248.674 34 249.274 34ZM252.514 36V33.48L252.614 30.64L252.414 27.8V21.16H254.894V36H252.514ZM258.185 36V25.32H260.685V36H258.185ZM259.445 23.56C258.978 23.56 258.592 23.4133 258.285 23.12C257.992 22.8267 257.845 22.4733 257.845 22.06C257.845 21.6333 257.992 21.28 258.285 21C258.592 20.7067 258.978 20.56 259.445 20.56C259.912 20.56 260.292 20.7 260.585 20.98C260.892 21.2467 261.045 21.5867 261.045 22C261.045 22.44 260.898 22.8133 260.605 23.12C260.312 23.4133 259.925 23.56 259.445 23.56ZM267.266 36.14C266.373 36.14 265.513 36.0267 264.686 35.8C263.873 35.56 263.226 35.2733 262.746 34.94L263.706 33.04C264.186 33.3467 264.76 33.6 265.426 33.8C266.093 34 266.76 34.1 267.426 34.1C268.213 34.1 268.78 33.9933 269.126 33.78C269.486 33.5667 269.666 33.28 269.666 32.92C269.666 32.6267 269.546 32.4067 269.306 32.26C269.066 32.1 268.753 31.98 268.366 31.9C267.98 31.82 267.546 31.7467 267.066 31.68C266.6 31.6133 266.126 31.5267 265.646 31.42C265.18 31.3 264.753 31.1333 264.366 30.92C263.98 30.6933 263.666 30.3933 263.426 30.02C263.186 29.6467 263.066 29.1533 263.066 28.54C263.066 27.86 263.26 27.2733 263.646 26.78C264.033 26.2733 264.573 25.8867 265.266 25.62C265.973 25.34 266.806 25.2 267.766 25.2C268.486 25.2 269.213 25.28 269.946 25.44C270.68 25.6 271.286 25.8267 271.766 26.12L270.806 28.02C270.3 27.7133 269.786 27.5067 269.266 27.4C268.76 27.28 268.253 27.22 267.746 27.22C266.986 27.22 266.42 27.3333 266.046 27.56C265.686 27.7867 265.506 28.0733 265.506 28.42C265.506 28.74 265.626 28.98 265.866 29.14C266.106 29.3 266.42 29.4267 266.806 29.52C267.193 29.6133 267.62 29.6933 268.086 29.76C268.566 29.8133 269.04 29.9 269.506 30.02C269.973 30.14 270.4 30.3067 270.786 30.52C271.186 30.72 271.506 31.0067 271.746 31.38C271.986 31.7533 272.106 32.24 272.106 32.84C272.106 33.5067 271.906 34.0867 271.506 34.58C271.12 35.0733 270.566 35.46 269.846 35.74C269.126 36.0067 268.266 36.14 267.266 36.14ZM279.159 36.14C278.039 36.14 277.039 35.9067 276.159 35.44C275.292 34.96 274.612 34.3067 274.119 33.48C273.626 32.6533 273.379 31.7133 273.379 30.66C273.379 29.5933 273.626 28.6533 274.119 27.84C274.612 27.0133 275.292 26.3667 276.159 25.9C277.039 25.4333 278.039 25.2 279.159 25.2C280.199 25.2 281.112 25.4133 281.899 25.84C282.699 26.2533 283.306 26.8667 283.719 27.68L281.799 28.8C281.479 28.2933 281.086 27.92 280.619 27.68C280.166 27.44 279.672 27.32 279.139 27.32C278.526 27.32 277.972 27.4533 277.479 27.72C276.986 27.9867 276.599 28.3733 276.319 28.88C276.039 29.3733 275.899 29.9667 275.899 30.66C275.899 31.3533 276.039 31.9533 276.319 32.46C276.599 32.9533 276.986 33.3333 277.479 33.6C277.972 33.8667 278.526 34 279.139 34C279.672 34 280.166 33.88 280.619 33.64C281.086 33.4 281.479 33.0267 281.799 32.52L283.719 33.64C283.306 34.44 282.699 35.06 281.899 35.5C281.112 35.9267 280.199 36.14 279.159 36.14ZM290.524 36.14C289.431 36.14 288.457 35.9067 287.604 35.44C286.751 34.96 286.077 34.3067 285.584 33.48C285.091 32.6533 284.844 31.7133 284.844 30.66C284.844 29.5933 285.091 28.6533 285.584 27.84C286.077 27.0133 286.751 26.3667 287.604 25.9C288.457 25.4333 289.431 25.2 290.524 25.2C291.631 25.2 292.611 25.4333 293.464 25.9C294.331 26.3667 295.004 27.0067 295.484 27.82C295.977 28.6333 296.224 29.58 296.224 30.66C296.224 31.7133 295.977 32.6533 295.484 33.48C295.004 34.3067 294.331 34.96 293.464 35.44C292.611 35.9067 291.631 36.14 290.524 36.14ZM290.524 34C291.137 34 291.684 33.8667 292.164 33.6C292.644 33.3333 293.017 32.9467 293.284 32.44C293.564 31.9333 293.704 31.34 293.704 30.66C293.704 29.9667 293.564 29.3733 293.284 28.88C293.017 28.3733 292.644 27.9867 292.164 27.72C291.684 27.4533 291.144 27.32 290.544 27.32C289.931 27.32 289.384 27.4533 288.904 27.72C288.437 27.9867 288.064 28.3733 287.784 28.88C287.504 29.3733 287.364 29.9667 287.364 30.66C287.364 31.34 287.504 31.9333 287.784 32.44C288.064 32.9467 288.437 33.3333 288.904 33.6C289.384 33.8667 289.924 34 290.524 34ZM303.135 36.14C302.228 36.14 301.428 35.9733 300.735 35.64C300.041 35.2933 299.501 34.7733 299.115 34.08C298.728 33.3733 298.535 32.4867 298.535 31.42V25.32H301.035V31.08C301.035 32.04 301.248 32.76 301.675 33.24C302.115 33.7067 302.735 33.94 303.535 33.94C304.121 33.94 304.628 33.82 305.055 33.58C305.495 33.34 305.835 32.98 306.075 32.5C306.328 32.02 306.455 31.4267 306.455 30.72V25.32H308.955V36H306.575V33.12L306.995 34C306.635 34.6933 306.108 35.2267 305.415 35.6C304.721 35.96 303.961 36.14 303.135 36.14ZM318.288 25.2C319.141 25.2 319.901 25.3667 320.568 25.7C321.248 26.0333 321.781 26.5467 322.168 27.24C322.555 27.92 322.748 28.8 322.748 29.88V36H320.248V30.2C320.248 29.2533 320.021 28.5467 319.568 28.08C319.128 27.6133 318.508 27.38 317.708 27.38C317.121 27.38 316.601 27.5 316.148 27.74C315.695 27.98 315.341 28.34 315.088 28.82C314.848 29.2867 314.728 29.88 314.728 30.6V36H312.228V25.32H314.608V28.2L314.188 27.32C314.561 26.64 315.101 26.12 315.808 25.76C316.528 25.3867 317.355 25.2 318.288 25.2ZM329.939 36.14C328.766 36.14 327.859 35.84 327.219 35.24C326.579 34.6267 326.259 33.7267 326.259 32.54V22.96H328.759V32.48C328.759 32.9867 328.886 33.38 329.139 33.66C329.406 33.94 329.773 34.08 330.239 34.08C330.799 34.08 331.266 33.9333 331.639 33.64L332.339 35.42C332.046 35.66 331.686 35.84 331.259 35.96C330.833 36.08 330.393 36.14 329.939 36.14ZM324.499 27.4V25.4H331.619V27.4H324.499Z" fill="white"/>
</svg>
