<svg width="200" height="36" viewBox="0 0 200 36" fill="none" xmlns="http://www.w3.org/2000/svg">
<path d="M6 0.5H194C197.038 0.5 199.5 2.96243 199.5 6V30C199.5 33.0376 197.038 35.5 194 35.5H6C2.96243 35.5 0.5 33.0376 0.5 30V6C0.500001 2.96243 2.96243 0.5 6 0.5Z" stroke="#DDDDDD"/>
<path d="M21.952 24.096C21.2267 24.096 20.5707 23.936 19.984 23.616C19.408 23.2853 18.9493 22.8 18.608 22.16C18.2773 21.52 18.112 20.72 18.112 19.76C18.112 18.8 18.2827 18 18.624 17.36C18.976 16.72 19.44 16.24 20.016 15.92C20.6027 15.6 21.248 15.44 21.952 15.44C22.784 15.44 23.52 15.6213 24.16 15.984C24.8 16.3467 25.3067 16.8533 25.68 17.504C26.0533 18.144 26.24 18.896 26.24 19.76C26.24 20.624 26.0533 21.3813 25.68 22.032C25.3067 22.6827 24.8 23.1893 24.16 23.552C23.52 23.9147 22.784 24.096 21.952 24.096ZM17.456 24V12.128H18.992V17.776L18.832 19.744L18.928 21.712V24H17.456ZM21.824 22.752C22.368 22.752 22.8533 22.6293 23.28 22.384C23.7173 22.1387 24.0587 21.792 24.304 21.344C24.56 20.8853 24.688 20.3573 24.688 19.76C24.688 19.152 24.56 18.6293 24.304 18.192C24.0587 17.744 23.7173 17.3973 23.28 17.152C22.8533 16.9067 22.368 16.784 21.824 16.784C21.2907 16.784 20.8053 16.9067 20.368 17.152C19.9413 17.3973 19.6 17.744 19.344 18.192C19.0987 18.6293 18.976 19.152 18.976 19.76C18.976 20.3573 19.0987 20.8853 19.344 21.344C19.6 21.792 19.9413 22.1387 20.368 22.384C20.8053 22.6293 21.2907 22.752 21.824 22.752ZM28.4959 27.2C28.0905 27.2 27.6959 27.1307 27.3119 26.992C26.9279 26.864 26.5972 26.672 26.3199 26.416L26.9759 25.264C27.1892 25.4667 27.4239 25.6213 27.6799 25.728C27.9359 25.8347 28.2079 25.888 28.4959 25.888C28.8692 25.888 29.1785 25.792 29.4239 25.6C29.6692 25.408 29.8985 25.0667 30.1119 24.576L30.6399 23.408L30.7999 23.216L34.1279 15.52H35.6319L31.5199 24.848C31.2745 25.4453 30.9972 25.9147 30.6879 26.256C30.3892 26.5973 30.0585 26.8373 29.6959 26.976C29.3332 27.1253 28.9332 27.2 28.4959 27.2ZM30.5119 24.272L26.6399 15.52H28.2399L31.5359 23.072L30.5119 24.272ZM44.8663 24.096C44.0449 24.096 43.3089 23.9147 42.6583 23.552C42.0183 23.1893 41.5116 22.6827 41.1383 22.032C40.7649 21.3813 40.5783 20.624 40.5783 19.76C40.5783 18.896 40.7649 18.144 41.1383 17.504C41.5116 16.8533 42.0183 16.3467 42.6583 15.984C43.3089 15.6213 44.0449 15.44 44.8663 15.44C45.5809 15.44 46.2263 15.6 46.8023 15.92C47.3783 16.24 47.8369 16.72 48.1783 17.36C48.5303 18 48.7063 18.8 48.7063 19.76C48.7063 20.72 48.5356 21.52 48.1943 22.16C47.8636 22.8 47.4103 23.2853 46.8343 23.616C46.2583 23.936 45.6023 24.096 44.8663 24.096ZM44.9943 22.752C45.5276 22.752 46.0076 22.6293 46.4343 22.384C46.8716 22.1387 47.2129 21.792 47.4583 21.344C47.7143 20.8853 47.8423 20.3573 47.8423 19.76C47.8423 19.152 47.7143 18.6293 47.4583 18.192C47.2129 17.744 46.8716 17.3973 46.4343 17.152C46.0076 16.9067 45.5276 16.784 44.9943 16.784C44.4503 16.784 43.9649 16.9067 43.5383 17.152C43.1116 17.3973 42.7703 17.744 42.5143 18.192C42.2583 18.6293 42.1303 19.152 42.1303 19.76C42.1303 20.3573 42.2583 20.8853 42.5143 21.344C42.7703 21.792 43.1116 22.1387 43.5383 22.384C43.9649 22.6293 44.4503 22.752 44.9943 22.752ZM47.8903 24V21.712L47.9862 19.744L47.8263 17.776V12.128H49.3623V24H47.8903ZM56.0445 24.096C55.1378 24.096 54.3378 23.9093 53.6445 23.536C52.9618 23.1627 52.4285 22.6507 52.0445 22C51.6712 21.3493 51.4845 20.6027 51.4845 19.76C51.4845 18.9173 51.6658 18.1707 52.0285 17.52C52.4018 16.8693 52.9085 16.3627 53.5485 16C54.1992 15.6267 54.9298 15.44 55.7405 15.44C56.5618 15.44 57.2872 15.6213 57.9165 15.984C58.5458 16.3467 59.0365 16.8587 59.3885 17.52C59.7512 18.1707 59.9325 18.9333 59.9325 19.808C59.9325 19.872 59.9272 19.9467 59.9165 20.032C59.9165 20.1173 59.9112 20.1973 59.9005 20.272H52.6845V19.168H59.1005L58.4765 19.552C58.4872 19.008 58.3752 18.5227 58.1405 18.096C57.9058 17.6693 57.5805 17.3387 57.1645 17.104C56.7592 16.8587 56.2845 16.736 55.7405 16.736C55.2072 16.736 54.7325 16.8587 54.3165 17.104C53.9005 17.3387 53.5752 17.6747 53.3405 18.112C53.1058 18.5387 52.9885 19.0293 52.9885 19.584V19.84C52.9885 20.4053 53.1165 20.912 53.3725 21.36C53.6392 21.7973 54.0072 22.1387 54.4765 22.384C54.9458 22.6293 55.4845 22.752 56.0925 22.752C56.5938 22.752 57.0472 22.6667 57.4525 22.496C57.8685 22.3253 58.2312 22.0693 58.5405 21.728L59.3885 22.72C59.0045 23.168 58.5245 23.5093 57.9485 23.744C57.3832 23.9787 56.7485 24.096 56.0445 24.096ZM62.2894 24V14.768C62.2894 13.936 62.5294 13.2747 63.0094 12.784C63.5 12.2827 64.1934 12.032 65.0894 12.032C65.42 12.032 65.7347 12.0747 66.0334 12.16C66.3427 12.2347 66.604 12.3573 66.8174 12.528L66.3534 13.696C66.1934 13.568 66.012 13.472 65.8094 13.408C65.6067 13.3333 65.3934 13.296 65.1694 13.296C64.7214 13.296 64.38 13.424 64.1454 13.68C63.9107 13.9253 63.7934 14.2933 63.7934 14.784V15.92L63.8254 16.624V24H62.2894ZM60.8494 16.784V15.52H66.2574V16.784H60.8494ZM72.8138 24V22.208L72.7338 21.872V18.816C72.7338 18.1653 72.5418 17.664 72.1578 17.312C71.7844 16.9493 71.2191 16.768 70.4618 16.768C69.9604 16.768 69.4698 16.8533 68.9898 17.024C68.5098 17.184 68.1044 17.4027 67.7738 17.68L67.1338 16.528C67.5711 16.176 68.0938 15.9093 68.7018 15.728C69.3204 15.536 69.9658 15.44 70.6378 15.44C71.8004 15.44 72.6964 15.7227 73.3258 16.288C73.9551 16.8533 74.2698 17.7173 74.2698 18.88V24H72.8138ZM70.0298 24.096C69.4004 24.096 68.8458 23.9893 68.3658 23.776C67.8964 23.5627 67.5338 23.2693 67.2778 22.896C67.0218 22.512 66.8938 22.08 66.8938 21.6C66.8938 21.1413 67.0004 20.7253 67.2138 20.352C67.4378 19.9787 67.7951 19.68 68.2858 19.456C68.7871 19.232 69.4591 19.12 70.3018 19.12H72.9898V20.224H70.3658C69.5978 20.224 69.0804 20.352 68.8138 20.608C68.5471 20.864 68.4138 21.1733 68.4138 21.536C68.4138 21.952 68.5791 22.288 68.9098 22.544C69.2404 22.7893 69.6991 22.912 70.2858 22.912C70.8618 22.912 71.3631 22.784 71.7898 22.528C72.2271 22.272 72.5418 21.8987 72.7338 21.408L73.0378 22.464C72.8351 22.9653 72.4778 23.3653 71.9658 23.664C71.4538 23.952 70.8084 24.096 70.0298 24.096ZM80.6803 24.096C79.9549 24.096 79.3149 23.9627 78.7603 23.696C78.2163 23.4293 77.7896 23.024 77.4803 22.48C77.1816 21.9253 77.0323 21.232 77.0323 20.4V15.52H78.5683V20.224C78.5683 21.056 78.7656 21.68 79.1603 22.096C79.5656 22.512 80.1309 22.72 80.8563 22.72C81.3896 22.72 81.8536 22.6133 82.2483 22.4C82.6429 22.176 82.9469 21.856 83.1603 21.44C83.3736 21.0133 83.4803 20.5013 83.4803 19.904V15.52H85.0163V24H83.5603V21.712L83.8003 22.32C83.5229 22.8853 83.1069 23.3227 82.5523 23.632C81.9976 23.9413 81.3736 24.096 80.6803 24.096ZM87.9404 24V12.128H89.4764V24H87.9404ZM95.5243 24.096C94.6709 24.096 94.0096 23.8667 93.5403 23.408C93.0709 22.9493 92.8363 22.2933 92.8363 21.44V13.664H94.3723V21.376C94.3723 21.8347 94.4843 22.1867 94.7083 22.432C94.9429 22.6773 95.2736 22.8 95.7003 22.8C96.1803 22.8 96.5803 22.6667 96.9003 22.4L97.3803 23.504C97.1456 23.7067 96.8629 23.856 96.5323 23.952C96.2123 24.048 95.8763 24.096 95.5243 24.096ZM91.3963 16.784V15.52H96.8043V16.784H91.3963Z" fill="#282828"/>
<path d="M188 15L182 20.9998L176 15" stroke="#282828" stroke-width="1.34998" stroke-linecap="round" stroke-linejoin="round"/>
</svg>
