<svg width="200" height="160" viewBox="0 0 200 160" fill="none" xmlns="http://www.w3.org/2000/svg">
<path d="M6 0.5H194C197.038 0.5 199.5 2.96243 199.5 6V30C199.5 33.0376 197.038 35.5 194 35.5H6C2.96243 35.5 0.5 33.0376 0.5 30V6C0.500001 2.96243 2.96243 0.5 6 0.5Z" stroke="#DDDDDD"/>
<path d="M21.952 24.096C21.2267 24.096 20.5707 23.936 19.984 23.616C19.408 23.2853 18.9493 22.8 18.608 22.16C18.2773 21.52 18.112 20.72 18.112 19.76C18.112 18.8 18.2827 18 18.624 17.36C18.976 16.72 19.44 16.24 20.016 15.92C20.6027 15.6 21.248 15.44 21.952 15.44C22.784 15.44 23.52 15.6213 24.16 15.984C24.8 16.3467 25.3067 16.8533 25.68 17.504C26.0533 18.144 26.24 18.896 26.24 19.76C26.24 20.624 26.0533 21.3813 25.68 22.032C25.3067 22.6827 24.8 23.1893 24.16 23.552C23.52 23.9147 22.784 24.096 21.952 24.096ZM17.456 24V12.128H18.992V17.776L18.832 19.744L18.928 21.712V24H17.456ZM21.824 22.752C22.368 22.752 22.8533 22.6293 23.28 22.384C23.7173 22.1387 24.0587 21.792 24.304 21.344C24.56 20.8853 24.688 20.3573 24.688 19.76C24.688 19.152 24.56 18.6293 24.304 18.192C24.0587 17.744 23.7173 17.3973 23.28 17.152C22.8533 16.9067 22.368 16.784 21.824 16.784C21.2907 16.784 20.8053 16.9067 20.368 17.152C19.9413 17.3973 19.6 17.744 19.344 18.192C19.0987 18.6293 18.976 19.152 18.976 19.76C18.976 20.3573 19.0987 20.8853 19.344 21.344C19.6 21.792 19.9413 22.1387 20.368 22.384C20.8053 22.6293 21.2907 22.752 21.824 22.752ZM28.4959 27.2C28.0905 27.2 27.6959 27.1307 27.3119 26.992C26.9279 26.864 26.5972 26.672 26.3199 26.416L26.9759 25.264C27.1892 25.4667 27.4239 25.6213 27.6799 25.728C27.9359 25.8347 28.2079 25.888 28.4959 25.888C28.8692 25.888 29.1785 25.792 29.4239 25.6C29.6692 25.408 29.8985 25.0667 30.1119 24.576L30.6399 23.408L30.7999 23.216L34.1279 15.52H35.6319L31.5199 24.848C31.2745 25.4453 30.9972 25.9147 30.6879 26.256C30.3892 26.5973 30.0585 26.8373 29.6959 26.976C29.3332 27.1253 28.9332 27.2 28.4959 27.2ZM30.5119 24.272L26.6399 15.52H28.2399L31.5359 23.072L30.5119 24.272ZM44.8663 24.096C44.0449 24.096 43.3089 23.9147 42.6583 23.552C42.0183 23.1893 41.5116 22.6827 41.1383 22.032C40.7649 21.3813 40.5783 20.624 40.5783 19.76C40.5783 18.896 40.7649 18.144 41.1383 17.504C41.5116 16.8533 42.0183 16.3467 42.6583 15.984C43.3089 15.6213 44.0449 15.44 44.8663 15.44C45.5809 15.44 46.2263 15.6 46.8023 15.92C47.3783 16.24 47.8369 16.72 48.1783 17.36C48.5303 18 48.7063 18.8 48.7063 19.76C48.7063 20.72 48.5356 21.52 48.1943 22.16C47.8636 22.8 47.4103 23.2853 46.8343 23.616C46.2583 23.936 45.6023 24.096 44.8663 24.096ZM44.9943 22.752C45.5276 22.752 46.0076 22.6293 46.4343 22.384C46.8716 22.1387 47.2129 21.792 47.4583 21.344C47.7143 20.8853 47.8423 20.3573 47.8423 19.76C47.8423 19.152 47.7143 18.6293 47.4583 18.192C47.2129 17.744 46.8716 17.3973 46.4343 17.152C46.0076 16.9067 45.5276 16.784 44.9943 16.784C44.4503 16.784 43.9649 16.9067 43.5383 17.152C43.1116 17.3973 42.7703 17.744 42.5143 18.192C42.2583 18.6293 42.1303 19.152 42.1303 19.76C42.1303 20.3573 42.2583 20.8853 42.5143 21.344C42.7703 21.792 43.1116 22.1387 43.5383 22.384C43.9649 22.6293 44.4503 22.752 44.9943 22.752ZM47.8903 24V21.712L47.9862 19.744L47.8263 17.776V12.128H49.3623V24H47.8903ZM56.0445 24.096C55.1378 24.096 54.3378 23.9093 53.6445 23.536C52.9618 23.1627 52.4285 22.6507 52.0445 22C51.6712 21.3493 51.4845 20.6027 51.4845 19.76C51.4845 18.9173 51.6658 18.1707 52.0285 17.52C52.4018 16.8693 52.9085 16.3627 53.5485 16C54.1992 15.6267 54.9298 15.44 55.7405 15.44C56.5618 15.44 57.2872 15.6213 57.9165 15.984C58.5458 16.3467 59.0365 16.8587 59.3885 17.52C59.7512 18.1707 59.9325 18.9333 59.9325 19.808C59.9325 19.872 59.9272 19.9467 59.9165 20.032C59.9165 20.1173 59.9112 20.1973 59.9005 20.272H52.6845V19.168H59.1005L58.4765 19.552C58.4872 19.008 58.3752 18.5227 58.1405 18.096C57.9058 17.6693 57.5805 17.3387 57.1645 17.104C56.7592 16.8587 56.2845 16.736 55.7405 16.736C55.2072 16.736 54.7325 16.8587 54.3165 17.104C53.9005 17.3387 53.5752 17.6747 53.3405 18.112C53.1058 18.5387 52.9885 19.0293 52.9885 19.584V19.84C52.9885 20.4053 53.1165 20.912 53.3725 21.36C53.6392 21.7973 54.0072 22.1387 54.4765 22.384C54.9458 22.6293 55.4845 22.752 56.0925 22.752C56.5938 22.752 57.0472 22.6667 57.4525 22.496C57.8685 22.3253 58.2312 22.0693 58.5405 21.728L59.3885 22.72C59.0045 23.168 58.5245 23.5093 57.9485 23.744C57.3832 23.9787 56.7485 24.096 56.0445 24.096ZM62.2894 24V14.768C62.2894 13.936 62.5294 13.2747 63.0094 12.784C63.5 12.2827 64.1934 12.032 65.0894 12.032C65.42 12.032 65.7347 12.0747 66.0334 12.16C66.3427 12.2347 66.604 12.3573 66.8174 12.528L66.3534 13.696C66.1934 13.568 66.012 13.472 65.8094 13.408C65.6067 13.3333 65.3934 13.296 65.1694 13.296C64.7214 13.296 64.38 13.424 64.1454 13.68C63.9107 13.9253 63.7934 14.2933 63.7934 14.784V15.92L63.8254 16.624V24H62.2894ZM60.8494 16.784V15.52H66.2574V16.784H60.8494ZM72.8138 24V22.208L72.7338 21.872V18.816C72.7338 18.1653 72.5418 17.664 72.1578 17.312C71.7844 16.9493 71.2191 16.768 70.4618 16.768C69.9604 16.768 69.4698 16.8533 68.9898 17.024C68.5098 17.184 68.1044 17.4027 67.7738 17.68L67.1338 16.528C67.5711 16.176 68.0938 15.9093 68.7018 15.728C69.3204 15.536 69.9658 15.44 70.6378 15.44C71.8004 15.44 72.6964 15.7227 73.3258 16.288C73.9551 16.8533 74.2698 17.7173 74.2698 18.88V24H72.8138ZM70.0298 24.096C69.4004 24.096 68.8458 23.9893 68.3658 23.776C67.8964 23.5627 67.5338 23.2693 67.2778 22.896C67.0218 22.512 66.8938 22.08 66.8938 21.6C66.8938 21.1413 67.0004 20.7253 67.2138 20.352C67.4378 19.9787 67.7951 19.68 68.2858 19.456C68.7871 19.232 69.4591 19.12 70.3018 19.12H72.9898V20.224H70.3658C69.5978 20.224 69.0804 20.352 68.8138 20.608C68.5471 20.864 68.4138 21.1733 68.4138 21.536C68.4138 21.952 68.5791 22.288 68.9098 22.544C69.2404 22.7893 69.6991 22.912 70.2858 22.912C70.8618 22.912 71.3631 22.784 71.7898 22.528C72.2271 22.272 72.5418 21.8987 72.7338 21.408L73.0378 22.464C72.8351 22.9653 72.4778 23.3653 71.9658 23.664C71.4538 23.952 70.8084 24.096 70.0298 24.096ZM80.6803 24.096C79.9549 24.096 79.3149 23.9627 78.7603 23.696C78.2163 23.4293 77.7896 23.024 77.4803 22.48C77.1816 21.9253 77.0323 21.232 77.0323 20.4V15.52H78.5683V20.224C78.5683 21.056 78.7656 21.68 79.1603 22.096C79.5656 22.512 80.1309 22.72 80.8563 22.72C81.3896 22.72 81.8536 22.6133 82.2483 22.4C82.6429 22.176 82.9469 21.856 83.1603 21.44C83.3736 21.0133 83.4803 20.5013 83.4803 19.904V15.52H85.0163V24H83.5603V21.712L83.8003 22.32C83.5229 22.8853 83.1069 23.3227 82.5523 23.632C81.9976 23.9413 81.3736 24.096 80.6803 24.096ZM87.9404 24V12.128H89.4764V24H87.9404ZM95.5243 24.096C94.6709 24.096 94.0096 23.8667 93.5403 23.408C93.0709 22.9493 92.8363 22.2933 92.8363 21.44V13.664H94.3723V21.376C94.3723 21.8347 94.4843 22.1867 94.7083 22.432C94.9429 22.6773 95.2736 22.8 95.7003 22.8C96.1803 22.8 96.5803 22.6667 96.9003 22.4L97.3803 23.504C97.1456 23.7067 96.8629 23.856 96.5323 23.952C96.2123 24.048 95.8763 24.096 95.5243 24.096ZM91.3963 16.784V15.52H96.8043V16.784H91.3963Z" fill="#282828"/>
<path d="M188 20.9998L182 14.9999L176 20.9998" stroke="#282828" stroke-width="1.34998" stroke-linecap="round" stroke-linejoin="round"/>
<path d="M0 42C0 38.6863 2.68629 36 6 36H194C197.314 36 200 38.6863 200 42V154C200 157.314 197.314 160 194 160H5.99999C2.68629 160 0 157.314 0 154V42Z" fill="white"/>
<path d="M21.952 68.096C21.2267 68.096 20.5707 67.936 19.984 67.616C19.408 67.2853 18.9493 66.8 18.608 66.16C18.2773 65.52 18.112 64.72 18.112 63.76C18.112 62.8 18.2827 62 18.624 61.36C18.976 60.72 19.44 60.24 20.016 59.92C20.6027 59.6 21.248 59.44 21.952 59.44C22.784 59.44 23.52 59.6213 24.16 59.984C24.8 60.3467 25.3067 60.8533 25.68 61.504C26.0533 62.144 26.24 62.896 26.24 63.76C26.24 64.624 26.0533 65.3813 25.68 66.032C25.3067 66.6827 24.8 67.1893 24.16 67.552C23.52 67.9147 22.784 68.096 21.952 68.096ZM17.456 68V56.128H18.992V61.776L18.832 63.744L18.928 65.712V68H17.456ZM21.824 66.752C22.368 66.752 22.8533 66.6293 23.28 66.384C23.7173 66.1387 24.0587 65.792 24.304 65.344C24.56 64.8853 24.688 64.3573 24.688 63.76C24.688 63.152 24.56 62.6293 24.304 62.192C24.0587 61.744 23.7173 61.3973 23.28 61.152C22.8533 60.9067 22.368 60.784 21.824 60.784C21.2907 60.784 20.8053 60.9067 20.368 61.152C19.9413 61.3973 19.6 61.744 19.344 62.192C19.0987 62.6293 18.976 63.152 18.976 63.76C18.976 64.3573 19.0987 64.8853 19.344 65.344C19.6 65.792 19.9413 66.1387 20.368 66.384C20.8053 66.6293 21.2907 66.752 21.824 66.752ZM28.4959 71.2C28.0905 71.2 27.6959 71.1307 27.3119 70.992C26.9279 70.864 26.5972 70.672 26.3199 70.416L26.9759 69.264C27.1892 69.4667 27.4239 69.6213 27.6799 69.728C27.9359 69.8347 28.2079 69.888 28.4959 69.888C28.8692 69.888 29.1785 69.792 29.4239 69.6C29.6692 69.408 29.8985 69.0667 30.1119 68.576L30.6399 67.408L30.7999 67.216L34.1279 59.52H35.6319L31.5199 68.848C31.2745 69.4453 30.9972 69.9147 30.6879 70.256C30.3892 70.5973 30.0585 70.8373 29.6959 70.976C29.3332 71.1253 28.9332 71.2 28.4959 71.2ZM30.5119 68.272L26.6399 59.52H28.2399L31.5359 67.072L30.5119 68.272ZM44.8663 68.096C44.0449 68.096 43.3089 67.9147 42.6583 67.552C42.0183 67.1893 41.5116 66.6827 41.1383 66.032C40.7649 65.3813 40.5783 64.624 40.5783 63.76C40.5783 62.896 40.7649 62.144 41.1383 61.504C41.5116 60.8533 42.0183 60.3467 42.6583 59.984C43.3089 59.6213 44.0449 59.44 44.8663 59.44C45.5809 59.44 46.2263 59.6 46.8023 59.92C47.3783 60.24 47.8369 60.72 48.1783 61.36C48.5303 62 48.7063 62.8 48.7063 63.76C48.7063 64.72 48.5356 65.52 48.1943 66.16C47.8636 66.8 47.4103 67.2853 46.8343 67.616C46.2583 67.936 45.6023 68.096 44.8663 68.096ZM44.9943 66.752C45.5276 66.752 46.0076 66.6293 46.4343 66.384C46.8716 66.1387 47.2129 65.792 47.4583 65.344C47.7143 64.8853 47.8423 64.3573 47.8423 63.76C47.8423 63.152 47.7143 62.6293 47.4583 62.192C47.2129 61.744 46.8716 61.3973 46.4343 61.152C46.0076 60.9067 45.5276 60.784 44.9943 60.784C44.4503 60.784 43.9649 60.9067 43.5383 61.152C43.1116 61.3973 42.7703 61.744 42.5143 62.192C42.2583 62.6293 42.1303 63.152 42.1303 63.76C42.1303 64.3573 42.2583 64.8853 42.5143 65.344C42.7703 65.792 43.1116 66.1387 43.5383 66.384C43.9649 66.6293 44.4503 66.752 44.9943 66.752ZM47.8903 68V65.712L47.9862 63.744L47.8263 61.776V56.128H49.3623V68H47.8903ZM56.0445 68.096C55.1378 68.096 54.3378 67.9093 53.6445 67.536C52.9618 67.1627 52.4285 66.6507 52.0445 66C51.6712 65.3493 51.4845 64.6027 51.4845 63.76C51.4845 62.9173 51.6658 62.1707 52.0285 61.52C52.4018 60.8693 52.9085 60.3627 53.5485 60C54.1992 59.6267 54.9298 59.44 55.7405 59.44C56.5618 59.44 57.2872 59.6213 57.9165 59.984C58.5458 60.3467 59.0365 60.8587 59.3885 61.52C59.7512 62.1707 59.9325 62.9333 59.9325 63.808C59.9325 63.872 59.9272 63.9467 59.9165 64.032C59.9165 64.1173 59.9112 64.1973 59.9005 64.272H52.6845V63.168H59.1005L58.4765 63.552C58.4872 63.008 58.3752 62.5227 58.1405 62.096C57.9058 61.6693 57.5805 61.3387 57.1645 61.104C56.7592 60.8587 56.2845 60.736 55.7405 60.736C55.2072 60.736 54.7325 60.8587 54.3165 61.104C53.9005 61.3387 53.5752 61.6747 53.3405 62.112C53.1058 62.5387 52.9885 63.0293 52.9885 63.584V63.84C52.9885 64.4053 53.1165 64.912 53.3725 65.36C53.6392 65.7973 54.0072 66.1387 54.4765 66.384C54.9458 66.6293 55.4845 66.752 56.0925 66.752C56.5938 66.752 57.0472 66.6667 57.4525 66.496C57.8685 66.3253 58.2312 66.0693 58.5405 65.728L59.3885 66.72C59.0045 67.168 58.5245 67.5093 57.9485 67.744C57.3832 67.9787 56.7485 68.096 56.0445 68.096ZM62.2894 68V58.768C62.2894 57.936 62.5294 57.2747 63.0094 56.784C63.5 56.2827 64.1934 56.032 65.0894 56.032C65.42 56.032 65.7347 56.0747 66.0334 56.16C66.3427 56.2347 66.604 56.3573 66.8174 56.528L66.3534 57.696C66.1934 57.568 66.012 57.472 65.8094 57.408C65.6067 57.3333 65.3934 57.296 65.1694 57.296C64.7214 57.296 64.38 57.424 64.1454 57.68C63.9107 57.9253 63.7934 58.2933 63.7934 58.784V59.92L63.8254 60.624V68H62.2894ZM60.8494 60.784V59.52H66.2574V60.784H60.8494ZM72.8138 68V66.208L72.7338 65.872V62.816C72.7338 62.1653 72.5418 61.664 72.1578 61.312C71.7844 60.9493 71.2191 60.768 70.4618 60.768C69.9604 60.768 69.4698 60.8533 68.9898 61.024C68.5098 61.184 68.1044 61.4027 67.7738 61.68L67.1338 60.528C67.5711 60.176 68.0938 59.9093 68.7018 59.728C69.3204 59.536 69.9658 59.44 70.6378 59.44C71.8004 59.44 72.6964 59.7227 73.3258 60.288C73.9551 60.8533 74.2698 61.7173 74.2698 62.88V68H72.8138ZM70.0298 68.096C69.4004 68.096 68.8458 67.9893 68.3658 67.776C67.8964 67.5627 67.5338 67.2693 67.2778 66.896C67.0218 66.512 66.8938 66.08 66.8938 65.6C66.8938 65.1413 67.0004 64.7253 67.2138 64.352C67.4378 63.9787 67.7951 63.68 68.2858 63.456C68.7871 63.232 69.4591 63.12 70.3018 63.12H72.9898V64.224H70.3658C69.5978 64.224 69.0804 64.352 68.8138 64.608C68.5471 64.864 68.4138 65.1733 68.4138 65.536C68.4138 65.952 68.5791 66.288 68.9098 66.544C69.2404 66.7893 69.6991 66.912 70.2858 66.912C70.8618 66.912 71.3631 66.784 71.7898 66.528C72.2271 66.272 72.5418 65.8987 72.7338 65.408L73.0378 66.464C72.8351 66.9653 72.4778 67.3653 71.9658 67.664C71.4538 67.952 70.8084 68.096 70.0298 68.096ZM80.6803 68.096C79.9549 68.096 79.3149 67.9627 78.7603 67.696C78.2163 67.4293 77.7896 67.024 77.4803 66.48C77.1816 65.9253 77.0323 65.232 77.0323 64.4V59.52H78.5683V64.224C78.5683 65.056 78.7656 65.68 79.1603 66.096C79.5656 66.512 80.1309 66.72 80.8563 66.72C81.3896 66.72 81.8536 66.6133 82.2483 66.4C82.6429 66.176 82.9469 65.856 83.1603 65.44C83.3736 65.0133 83.4803 64.5013 83.4803 63.904V59.52H85.0163V68H83.5603V65.712L83.8003 66.32C83.5229 66.8853 83.1069 67.3227 82.5523 67.632C81.9976 67.9413 81.3736 68.096 80.6803 68.096ZM87.9404 68V56.128H89.4764V68H87.9404ZM95.5243 68.096C94.6709 68.096 94.0096 67.8667 93.5403 67.408C93.0709 66.9493 92.8363 66.2933 92.8363 65.44V57.664H94.3723V65.376C94.3723 65.8347 94.4843 66.1867 94.7083 66.432C94.9429 66.6773 95.2736 66.8 95.7003 66.8C96.1803 66.8 96.5803 66.6667 96.9003 66.4L97.3803 67.504C97.1456 67.7067 96.8629 67.856 96.5323 67.952C96.2123 68.048 95.8763 68.096 95.5243 68.096ZM91.3963 60.784V59.52H96.8043V60.784H91.3963Z" fill="#282828"/>
<path d="M21.984 83.44C22.6773 83.44 23.2853 83.5733 23.808 83.84C24.3413 84.1067 24.7573 84.512 25.056 85.056C25.3547 85.6 25.504 86.288 25.504 87.12V92H23.968V87.296C23.968 86.4747 23.7653 85.856 23.36 85.44C22.9653 85.024 22.4053 84.816 21.68 84.816C21.136 84.816 20.6613 84.9227 20.256 85.136C19.8507 85.3493 19.536 85.664 19.312 86.08C19.0987 86.496 18.992 87.0133 18.992 87.632V92H17.456V83.52H18.928V85.808L18.688 85.2C18.9653 84.6453 19.392 84.2133 19.968 83.904C20.544 83.5947 21.216 83.44 21.984 83.44ZM32.1226 92.096C31.216 92.096 30.416 91.9093 29.7226 91.536C29.04 91.1627 28.5066 90.6507 28.1226 90C27.7493 89.3493 27.5626 88.6027 27.5626 87.76C27.5626 86.9173 27.744 86.1707 28.1066 85.52C28.48 84.8693 28.9866 84.3627 29.6266 84C30.2773 83.6267 31.008 83.44 31.8186 83.44C32.64 83.44 33.3653 83.6213 33.9946 83.984C34.624 84.3467 35.1146 84.8587 35.4666 85.52C35.8293 86.1707 36.0106 86.9333 36.0106 87.808C36.0106 87.872 36.0053 87.9467 35.9946 88.032C35.9946 88.1173 35.9893 88.1973 35.9786 88.272H28.7626V87.168H35.1786L34.5546 87.552C34.5653 87.008 34.4533 86.5227 34.2186 86.096C33.984 85.6693 33.6586 85.3387 33.2426 85.104C32.8373 84.8587 32.3626 84.736 31.8186 84.736C31.2853 84.736 30.8106 84.8587 30.3946 85.104C29.9786 85.3387 29.6533 85.6747 29.4186 86.112C29.184 86.5387 29.0666 87.0293 29.0666 87.584V87.84C29.0666 88.4053 29.1946 88.912 29.4506 89.36C29.7173 89.7973 30.0853 90.1387 30.5546 90.384C31.024 90.6293 31.5626 90.752 32.1706 90.752C32.672 90.752 33.1253 90.6667 33.5306 90.496C33.9466 90.3253 34.3093 90.0693 34.6186 89.728L35.4666 90.72C35.0826 91.168 34.6026 91.5093 34.0266 91.744C33.4613 91.9787 32.8266 92.096 32.1226 92.096ZM39.7793 92L36.6273 83.52H38.0833L40.8833 91.2H40.1953L43.1073 83.52H44.4033L47.2513 91.2H46.5793L49.4433 83.52H50.8193L47.6513 92H46.1793L43.5073 84.992H43.9553L41.2513 92H39.7793ZM55.9195 92.096C55.0128 92.096 54.2128 91.9093 53.5195 91.536C52.8368 91.1627 52.3035 90.6507 51.9195 90C51.5462 89.3493 51.3595 88.6027 51.3595 87.76C51.3595 86.9173 51.5408 86.1707 51.9035 85.52C52.2768 84.8693 52.7835 84.3627 53.4235 84C54.0742 83.6267 54.8048 83.44 55.6155 83.44C56.4368 83.44 57.1622 83.6213 57.7915 83.984C58.4208 84.3467 58.9115 84.8587 59.2635 85.52C59.6262 86.1707 59.8075 86.9333 59.8075 87.808C59.8075 87.872 59.8022 87.9467 59.7915 88.032C59.7915 88.1173 59.7862 88.1973 59.7755 88.272H52.5595V87.168H58.9755L58.3515 87.552C58.3622 87.008 58.2502 86.5227 58.0155 86.096C57.7808 85.6693 57.4555 85.3387 57.0395 85.104C56.6342 84.8587 56.1595 84.736 55.6155 84.736C55.0822 84.736 54.6075 84.8587 54.1915 85.104C53.7755 85.3387 53.4502 85.6747 53.2155 86.112C52.9808 86.5387 52.8635 87.0293 52.8635 87.584V87.84C52.8635 88.4053 52.9915 88.912 53.2475 89.36C53.5142 89.7973 53.8822 90.1387 54.3515 90.384C54.8208 90.6293 55.3595 90.752 55.9675 90.752C56.4688 90.752 56.9222 90.6667 57.3275 90.496C57.7435 90.3253 58.1062 90.0693 58.4155 89.728L59.2635 90.72C58.8795 91.168 58.3995 91.5093 57.8235 91.744C57.2582 91.9787 56.6235 92.096 55.9195 92.096ZM64.3724 92.096C63.6684 92.096 62.9964 92 62.3564 91.808C61.727 91.616 61.231 91.3813 60.8684 91.104L61.5084 89.888C61.871 90.1333 62.319 90.3413 62.8524 90.512C63.3857 90.6827 63.9297 90.768 64.4844 90.768C65.199 90.768 65.711 90.6667 66.0204 90.464C66.3404 90.2613 66.5004 89.9787 66.5004 89.616C66.5004 89.3493 66.4044 89.1413 66.2124 88.992C66.0204 88.8427 65.7644 88.7307 65.4444 88.656C65.135 88.5813 64.7884 88.5173 64.4044 88.464C64.0204 88.4 63.6364 88.3253 63.2524 88.24C62.8684 88.144 62.5164 88.016 62.1964 87.856C61.8764 87.6853 61.6204 87.456 61.4284 87.168C61.2364 86.8693 61.1404 86.4747 61.1404 85.984C61.1404 85.472 61.2844 85.024 61.5724 84.64C61.8604 84.256 62.2657 83.9627 62.7884 83.76C63.3217 83.5467 63.951 83.44 64.6764 83.44C65.231 83.44 65.791 83.5093 66.3564 83.648C66.9324 83.776 67.4017 83.9627 67.7644 84.208L67.1084 85.424C66.7244 85.168 66.3244 84.992 65.9084 84.896C65.4924 84.8 65.0764 84.752 64.6604 84.752C63.9884 84.752 63.487 84.864 63.1564 85.088C62.8257 85.3013 62.6604 85.5787 62.6604 85.92C62.6604 86.208 62.7564 86.432 62.9484 86.592C63.151 86.7413 63.407 86.8587 63.7164 86.944C64.0364 87.0293 64.3884 87.104 64.7724 87.168C65.1564 87.2213 65.5404 87.296 65.9244 87.392C66.3084 87.4773 66.655 87.6 66.9644 87.76C67.2844 87.92 67.5404 88.144 67.7324 88.432C67.935 88.72 68.0364 89.104 68.0364 89.584C68.0364 90.096 67.887 90.5387 67.5884 90.912C67.2897 91.2853 66.8684 91.5787 66.3244 91.792C65.7804 91.9947 65.1297 92.096 64.3724 92.096ZM72.868 92.096C72.0147 92.096 71.3533 91.8667 70.884 91.408C70.4147 90.9493 70.18 90.2933 70.18 89.44V81.664H71.716V89.376C71.716 89.8347 71.828 90.1867 72.052 90.432C72.2867 90.6773 72.6173 90.8 73.044 90.8C73.524 90.8 73.924 90.6667 74.244 90.4L74.724 91.504C74.4893 91.7067 74.2067 91.856 73.876 91.952C73.556 92.048 73.22 92.096 72.868 92.096ZM68.74 84.784V83.52H74.148V84.784H68.74Z" fill="#8B8B8B"/>
<path d="M21.952 116.096C21.248 116.096 20.6027 115.936 20.016 115.616C19.44 115.285 18.976 114.8 18.624 114.16C18.2827 113.52 18.112 112.72 18.112 111.76C18.112 110.8 18.2773 110 18.608 109.36C18.9493 108.72 19.408 108.24 19.984 107.92C20.5707 107.6 21.2267 107.44 21.952 107.44C22.784 107.44 23.52 107.621 24.16 107.984C24.8 108.347 25.3067 108.853 25.68 109.504C26.0533 110.144 26.24 110.896 26.24 111.76C26.24 112.624 26.0533 113.381 25.68 114.032C25.3067 114.683 24.8 115.189 24.16 115.552C23.52 115.915 22.784 116.096 21.952 116.096ZM17.456 119.104V107.52H18.928V109.808L18.832 111.776L18.992 113.744V119.104H17.456ZM21.824 114.752C22.368 114.752 22.8533 114.629 23.28 114.384C23.7173 114.139 24.0587 113.792 24.304 113.344C24.56 112.885 24.688 112.357 24.688 111.76C24.688 111.152 24.56 110.629 24.304 110.192C24.0587 109.744 23.7173 109.397 23.28 109.152C22.8533 108.907 22.368 108.784 21.824 108.784C21.2907 108.784 20.8053 108.907 20.368 109.152C19.9413 109.397 19.6 109.744 19.344 110.192C19.0987 110.629 18.976 111.152 18.976 111.76C18.976 112.357 19.0987 112.885 19.344 113.344C19.6 113.792 19.9413 114.139 20.368 114.384C20.8053 114.629 21.2907 114.752 21.824 114.752ZM28.3623 116V107.52H29.8343V109.824L29.6903 109.248C29.9249 108.661 30.3196 108.213 30.8743 107.904C31.4289 107.595 32.1116 107.44 32.9223 107.44V108.928C32.8583 108.917 32.7943 108.912 32.7303 108.912C32.6769 108.912 32.6236 108.912 32.5703 108.912C31.7489 108.912 31.0983 109.157 30.6183 109.648C30.1383 110.139 29.8983 110.848 29.8983 111.776V116H28.3623ZM34.8154 116V107.52H36.3514V116H34.8154ZM35.5834 105.888C35.2847 105.888 35.034 105.792 34.8314 105.6C34.6394 105.408 34.5434 105.173 34.5434 104.896C34.5434 104.608 34.6394 104.368 34.8314 104.176C35.034 103.984 35.2847 103.888 35.5834 103.888C35.882 103.888 36.1274 103.984 36.3194 104.176C36.522 104.357 36.6234 104.587 36.6234 104.864C36.6234 105.152 36.5274 105.397 36.3354 105.6C36.1434 105.792 35.8927 105.888 35.5834 105.888ZM42.9801 116.096C42.1161 116.096 41.3428 115.909 40.6601 115.536C39.9881 115.163 39.4601 114.651 39.0761 114C38.6921 113.349 38.5001 112.603 38.5001 111.76C38.5001 110.917 38.6921 110.171 39.0761 109.52C39.4601 108.869 39.9881 108.363 40.6601 108C41.3428 107.627 42.1161 107.44 42.9801 107.44C43.7481 107.44 44.4308 107.595 45.0281 107.904C45.6361 108.203 46.1055 108.651 46.4361 109.248L45.2681 110C44.9908 109.584 44.6495 109.28 44.2441 109.088C43.8495 108.885 43.4228 108.784 42.9641 108.784C42.4095 108.784 41.9135 108.907 41.4761 109.152C41.0388 109.397 40.6921 109.744 40.4361 110.192C40.1801 110.629 40.0521 111.152 40.0521 111.76C40.0521 112.368 40.1801 112.896 40.4361 113.344C40.6921 113.792 41.0388 114.139 41.4761 114.384C41.9135 114.629 42.4095 114.752 42.9641 114.752C43.4228 114.752 43.8495 114.656 44.2441 114.464C44.6495 114.261 44.9908 113.952 45.2681 113.536L46.4361 114.272C46.1055 114.859 45.6361 115.312 45.0281 115.632C44.4308 115.941 43.7481 116.096 42.9801 116.096ZM52.0758 116.096C51.1691 116.096 50.3691 115.909 49.6758 115.536C48.9931 115.163 48.4598 114.651 48.0758 114C47.7024 113.349 47.5158 112.603 47.5158 111.76C47.5158 110.917 47.6971 110.171 48.0598 109.52C48.4331 108.869 48.9398 108.363 49.5798 108C50.2304 107.627 50.9611 107.44 51.7718 107.44C52.5931 107.44 53.3184 107.621 53.9478 107.984C54.5771 108.347 55.0678 108.859 55.4198 109.52C55.7824 110.171 55.9638 110.933 55.9638 111.808C55.9638 111.872 55.9584 111.947 55.9478 112.032C55.9478 112.117 55.9424 112.197 55.9318 112.272H48.7158V111.168H55.1318L54.5078 111.552C54.5184 111.008 54.4064 110.523 54.1718 110.096C53.9371 109.669 53.6118 109.339 53.1958 109.104C52.7904 108.859 52.3158 108.736 51.7718 108.736C51.2384 108.736 50.7638 108.859 50.3478 109.104C49.9318 109.339 49.6064 109.675 49.3718 110.112C49.1371 110.539 49.0198 111.029 49.0198 111.584V111.84C49.0198 112.405 49.1478 112.912 49.4038 113.36C49.6704 113.797 50.0384 114.139 50.5078 114.384C50.9771 114.629 51.5158 114.752 52.1238 114.752C52.6251 114.752 53.0784 114.667 53.4838 114.496C53.8998 114.325 54.2624 114.069 54.5718 113.728L55.4198 114.72C55.0358 115.168 54.5558 115.509 53.9798 115.744C53.4144 115.979 52.7798 116.096 52.0758 116.096ZM58.4646 109.632C58.166 109.632 57.91 109.531 57.6966 109.328C57.4833 109.115 57.3766 108.848 57.3766 108.528C57.3766 108.208 57.4833 107.947 57.6966 107.744C57.91 107.541 58.166 107.44 58.4646 107.44C58.7526 107.44 58.998 107.541 59.2006 107.744C59.414 107.947 59.5206 108.208 59.5206 108.528C59.5206 108.848 59.414 109.115 59.2006 109.328C58.998 109.531 58.7526 109.632 58.4646 109.632ZM58.4646 116.096C58.166 116.096 57.91 115.995 57.6966 115.792C57.4833 115.579 57.3766 115.312 57.3766 114.992C57.3766 114.672 57.4833 114.411 57.6966 114.208C57.91 114.005 58.166 113.904 58.4646 113.904C58.7526 113.904 58.998 114.005 59.2006 114.208C59.414 114.411 59.5206 114.672 59.5206 114.992C59.5206 115.312 59.414 115.579 59.2006 115.792C58.998 115.995 58.7526 116.096 58.4646 116.096ZM70.5465 107.44C71.2398 107.44 71.8478 107.573 72.3705 107.84C72.9038 108.107 73.3198 108.512 73.6185 109.056C73.9172 109.6 74.0665 110.288 74.0665 111.12V116H72.5305V111.296C72.5305 110.475 72.3278 109.856 71.9225 109.44C71.5278 109.024 70.9678 108.816 70.2425 108.816C69.6985 108.816 69.2238 108.923 68.8185 109.136C68.4132 109.349 68.0985 109.664 67.8745 110.08C67.6612 110.496 67.5545 111.013 67.5545 111.632V116H66.0185V104.128H67.5545V109.808L67.2505 109.2C67.5278 108.645 67.9545 108.213 68.5305 107.904C69.1065 107.595 69.7785 107.44 70.5465 107.44ZM76.9091 116V107.52H78.4451V116H76.9091ZM77.6771 105.888C77.3785 105.888 77.1278 105.792 76.9251 105.6C76.7331 105.408 76.6371 105.173 76.6371 104.896C76.6371 104.608 76.7331 104.368 76.9251 104.176C77.1278 103.984 77.3785 103.888 77.6771 103.888C77.9758 103.888 78.2211 103.984 78.4131 104.176C78.6158 104.357 78.7171 104.587 78.7171 104.864C78.7171 105.152 78.6211 105.397 78.4291 105.6C78.2371 105.792 77.9865 105.888 77.6771 105.888ZM85.0899 119.2C84.3112 119.2 83.5539 119.088 82.8179 118.864C82.0925 118.651 81.5005 118.341 81.0419 117.936L81.7779 116.752C82.1725 117.093 82.6579 117.36 83.2339 117.552C83.8099 117.755 84.4125 117.856 85.0419 117.856C86.0445 117.856 86.7805 117.621 87.2499 117.152C87.7192 116.683 87.9539 115.968 87.9539 115.008V113.216L88.1139 111.536L88.0339 109.84V107.52H89.4899V114.848C89.4899 116.341 89.1165 117.44 88.3699 118.144C87.6232 118.848 86.5299 119.2 85.0899 119.2ZM84.8979 115.648C84.0765 115.648 83.3405 115.477 82.6899 115.136C82.0499 114.784 81.5379 114.299 81.1539 113.68C80.7805 113.061 80.5939 112.347 80.5939 111.536C80.5939 110.715 80.7805 110 81.1539 109.392C81.5379 108.773 82.0499 108.293 82.6899 107.952C83.3405 107.611 84.0765 107.44 84.8979 107.44C85.6232 107.44 86.2845 107.589 86.8819 107.888C87.4792 108.176 87.9539 108.624 88.3059 109.232C88.6685 109.84 88.8499 110.608 88.8499 111.536C88.8499 112.453 88.6685 113.216 88.3059 113.824C87.9539 114.432 87.4792 114.891 86.8819 115.2C86.2845 115.499 85.6232 115.648 84.8979 115.648ZM85.0739 114.304C85.6392 114.304 86.1405 114.187 86.5779 113.952C87.0152 113.717 87.3565 113.392 87.6019 112.976C87.8579 112.56 87.9859 112.08 87.9859 111.536C87.9859 110.992 87.8579 110.512 87.6019 110.096C87.3565 109.68 87.0152 109.36 86.5779 109.136C86.1405 108.901 85.6392 108.784 85.0739 108.784C84.5085 108.784 84.0019 108.901 83.5539 109.136C83.1165 109.36 82.7699 109.68 82.5139 110.096C82.2685 110.512 82.1459 110.992 82.1459 111.536C82.1459 112.08 82.2685 112.56 82.5139 112.976C82.7699 113.392 83.1165 113.717 83.5539 113.952C84.0019 114.187 84.5085 114.304 85.0739 114.304ZM96.9528 107.44C97.6461 107.44 98.2541 107.573 98.7768 107.84C99.3101 108.107 99.7261 108.512 100.025 109.056C100.323 109.6 100.473 110.288 100.473 111.12V116H98.9368V111.296C98.9368 110.475 98.7341 109.856 98.3288 109.44C97.9341 109.024 97.3741 108.816 96.6488 108.816C96.1048 108.816 95.6301 108.923 95.2248 109.136C94.8194 109.349 94.5048 109.664 94.2808 110.08C94.0674 110.496 93.9608 111.013 93.9608 111.632V116H92.4248V104.128H93.9608V109.808L93.6568 109.2C93.9341 108.645 94.3608 108.213 94.9368 107.904C95.5128 107.595 96.1848 107.44 96.9528 107.44ZM102.771 112.272V110.944H107.075V112.272H102.771ZM109.44 116V104.128H110.976V116H109.44ZM117.541 116.096C116.688 116.096 115.93 115.909 115.269 115.536C114.608 115.163 114.085 114.651 113.701 114C113.317 113.339 113.125 112.592 113.125 111.76C113.125 110.917 113.317 110.171 113.701 109.52C114.085 108.869 114.608 108.363 115.269 108C115.93 107.627 116.688 107.44 117.541 107.44C118.384 107.44 119.136 107.627 119.797 108C120.469 108.363 120.992 108.869 121.365 109.52C121.749 110.16 121.941 110.907 121.941 111.76C121.941 112.603 121.749 113.349 121.365 114C120.992 114.651 120.469 115.163 119.797 115.536C119.136 115.909 118.384 116.096 117.541 116.096ZM117.541 114.752C118.085 114.752 118.57 114.629 118.997 114.384C119.434 114.139 119.776 113.792 120.021 113.344C120.266 112.885 120.389 112.357 120.389 111.76C120.389 111.152 120.266 110.629 120.021 110.192C119.776 109.744 119.434 109.397 118.997 109.152C118.57 108.907 118.085 108.784 117.541 108.784C116.997 108.784 116.512 108.907 116.085 109.152C115.658 109.397 115.317 109.744 115.061 110.192C114.805 110.629 114.677 111.152 114.677 111.76C114.677 112.357 114.805 112.885 115.061 113.344C115.317 113.792 115.658 114.139 116.085 114.384C116.512 114.629 116.997 114.752 117.541 114.752ZM125.623 116L122.471 107.52H123.927L126.727 115.2H126.039L128.951 107.52H130.247L133.095 115.2H132.423L135.287 107.52H136.663L133.495 116H132.023L129.351 108.992H129.799L127.095 116H125.623Z" fill="#8B8B8B"/>
<path d="M21.952 140.096C21.248 140.096 20.6027 139.936 20.016 139.616C19.44 139.285 18.976 138.8 18.624 138.16C18.2827 137.52 18.112 136.72 18.112 135.76C18.112 134.8 18.2773 134 18.608 133.36C18.9493 132.72 19.408 132.24 19.984 131.92C20.5707 131.6 21.2267 131.44 21.952 131.44C22.784 131.44 23.52 131.621 24.16 131.984C24.8 132.347 25.3067 132.853 25.68 133.504C26.0533 134.144 26.24 134.896 26.24 135.76C26.24 136.624 26.0533 137.381 25.68 138.032C25.3067 138.683 24.8 139.189 24.16 139.552C23.52 139.915 22.784 140.096 21.952 140.096ZM17.456 143.104V131.52H18.928V133.808L18.832 135.776L18.992 137.744V143.104H17.456ZM21.824 138.752C22.368 138.752 22.8533 138.629 23.28 138.384C23.7173 138.139 24.0587 137.792 24.304 137.344C24.56 136.885 24.688 136.357 24.688 135.76C24.688 135.152 24.56 134.629 24.304 134.192C24.0587 133.744 23.7173 133.397 23.28 133.152C22.8533 132.907 22.368 132.784 21.824 132.784C21.2907 132.784 20.8053 132.907 20.368 133.152C19.9413 133.397 19.6 133.744 19.344 134.192C19.0987 134.629 18.976 135.152 18.976 135.76C18.976 136.357 19.0987 136.885 19.344 137.344C19.6 137.792 19.9413 138.139 20.368 138.384C20.8053 138.629 21.2907 138.752 21.824 138.752ZM28.3623 140V131.52H29.8343V133.824L29.6903 133.248C29.9249 132.661 30.3196 132.213 30.8743 131.904C31.4289 131.595 32.1116 131.44 32.9223 131.44V132.928C32.8583 132.917 32.7943 132.912 32.7303 132.912C32.6769 132.912 32.6236 132.912 32.5703 132.912C31.7489 132.912 31.0983 133.157 30.6183 133.648C30.1383 134.139 29.8983 134.848 29.8983 135.776V140H28.3623ZM34.8154 140V131.52H36.3514V140H34.8154ZM35.5834 129.888C35.2847 129.888 35.034 129.792 34.8314 129.6C34.6394 129.408 34.5434 129.173 34.5434 128.896C34.5434 128.608 34.6394 128.368 34.8314 128.176C35.034 127.984 35.2847 127.888 35.5834 127.888C35.882 127.888 36.1274 127.984 36.3194 128.176C36.522 128.357 36.6234 128.587 36.6234 128.864C36.6234 129.152 36.5274 129.397 36.3354 129.6C36.1434 129.792 35.8927 129.888 35.5834 129.888ZM42.9801 140.096C42.1161 140.096 41.3428 139.909 40.6601 139.536C39.9881 139.163 39.4601 138.651 39.0761 138C38.6921 137.349 38.5001 136.603 38.5001 135.76C38.5001 134.917 38.6921 134.171 39.0761 133.52C39.4601 132.869 39.9881 132.363 40.6601 132C41.3428 131.627 42.1161 131.44 42.9801 131.44C43.7481 131.44 44.4308 131.595 45.0281 131.904C45.6361 132.203 46.1055 132.651 46.4361 133.248L45.2681 134C44.9908 133.584 44.6495 133.28 44.2441 133.088C43.8495 132.885 43.4228 132.784 42.9641 132.784C42.4095 132.784 41.9135 132.907 41.4761 133.152C41.0388 133.397 40.6921 133.744 40.4361 134.192C40.1801 134.629 40.0521 135.152 40.0521 135.76C40.0521 136.368 40.1801 136.896 40.4361 137.344C40.6921 137.792 41.0388 138.139 41.4761 138.384C41.9135 138.629 42.4095 138.752 42.9641 138.752C43.4228 138.752 43.8495 138.656 44.2441 138.464C44.6495 138.261 44.9908 137.952 45.2681 137.536L46.4361 138.272C46.1055 138.859 45.6361 139.312 45.0281 139.632C44.4308 139.941 43.7481 140.096 42.9801 140.096ZM52.0758 140.096C51.1691 140.096 50.3691 139.909 49.6758 139.536C48.9931 139.163 48.4598 138.651 48.0758 138C47.7024 137.349 47.5158 136.603 47.5158 135.76C47.5158 134.917 47.6971 134.171 48.0598 133.52C48.4331 132.869 48.9398 132.363 49.5798 132C50.2304 131.627 50.9611 131.44 51.7718 131.44C52.5931 131.44 53.3184 131.621 53.9478 131.984C54.5771 132.347 55.0678 132.859 55.4198 133.52C55.7824 134.171 55.9638 134.933 55.9638 135.808C55.9638 135.872 55.9584 135.947 55.9478 136.032C55.9478 136.117 55.9424 136.197 55.9318 136.272H48.7158V135.168H55.1318L54.5078 135.552C54.5184 135.008 54.4064 134.523 54.1718 134.096C53.9371 133.669 53.6118 133.339 53.1958 133.104C52.7904 132.859 52.3158 132.736 51.7718 132.736C51.2384 132.736 50.7638 132.859 50.3478 133.104C49.9318 133.339 49.6064 133.675 49.3718 134.112C49.1371 134.539 49.0198 135.029 49.0198 135.584V135.84C49.0198 136.405 49.1478 136.912 49.4038 137.36C49.6704 137.797 50.0384 138.139 50.5078 138.384C50.9771 138.629 51.5158 138.752 52.1238 138.752C52.6251 138.752 53.0784 138.667 53.4838 138.496C53.8998 138.325 54.2624 138.069 54.5718 137.728L55.4198 138.72C55.0358 139.168 54.5558 139.509 53.9798 139.744C53.4144 139.979 52.7798 140.096 52.0758 140.096ZM58.4646 133.632C58.166 133.632 57.91 133.531 57.6966 133.328C57.4833 133.115 57.3766 132.848 57.3766 132.528C57.3766 132.208 57.4833 131.947 57.6966 131.744C57.91 131.541 58.166 131.44 58.4646 131.44C58.7526 131.44 58.998 131.541 59.2006 131.744C59.414 131.947 59.5206 132.208 59.5206 132.528C59.5206 132.848 59.414 133.115 59.2006 133.328C58.998 133.531 58.7526 133.632 58.4646 133.632ZM58.4646 140.096C58.166 140.096 57.91 139.995 57.6966 139.792C57.4833 139.579 57.3766 139.312 57.3766 138.992C57.3766 138.672 57.4833 138.411 57.6966 138.208C57.91 138.005 58.166 137.904 58.4646 137.904C58.7526 137.904 58.998 138.005 59.2006 138.208C59.414 138.411 59.5206 138.672 59.5206 138.992C59.5206 139.312 59.414 139.579 59.2006 139.792C58.998 139.995 58.7526 140.096 58.4646 140.096ZM66.0185 140V128.128H67.5545V140H66.0185ZM74.1193 140.096C73.2659 140.096 72.5086 139.909 71.8473 139.536C71.1859 139.163 70.6633 138.651 70.2793 138C69.8953 137.339 69.7033 136.592 69.7033 135.76C69.7033 134.917 69.8953 134.171 70.2793 133.52C70.6633 132.869 71.1859 132.363 71.8473 132C72.5086 131.627 73.2659 131.44 74.1193 131.44C74.9619 131.44 75.7139 131.627 76.3753 132C77.0473 132.363 77.5699 132.869 77.9433 133.52C78.3273 134.16 78.5193 134.907 78.5193 135.76C78.5193 136.603 78.3273 137.349 77.9433 138C77.5699 138.651 77.0473 139.163 76.3753 139.536C75.7139 139.909 74.9619 140.096 74.1193 140.096ZM74.1193 138.752C74.6633 138.752 75.1486 138.629 75.5753 138.384C76.0126 138.139 76.3539 137.792 76.5993 137.344C76.8446 136.885 76.9673 136.357 76.9673 135.76C76.9673 135.152 76.8446 134.629 76.5993 134.192C76.3539 133.744 76.0126 133.397 75.5753 133.152C75.1486 132.907 74.6633 132.784 74.1193 132.784C73.5753 132.784 73.0899 132.907 72.6633 133.152C72.2366 133.397 71.8953 133.744 71.6393 134.192C71.3833 134.629 71.2553 135.152 71.2553 135.76C71.2553 136.357 71.3833 136.885 71.6393 137.344C71.8953 137.792 72.2366 138.139 72.6633 138.384C73.0899 138.629 73.5753 138.752 74.1193 138.752ZM82.2011 140L79.0491 131.52H80.5051L83.3051 139.2H82.6171L85.5291 131.52H86.8251L89.6731 139.2H89.0011L91.8651 131.52H93.2411L90.0731 140H88.6011L85.9291 132.992H86.3771L83.6731 140H82.2011ZM94.0526 136.272V134.944H98.3566V136.272H94.0526ZM105.25 131.44C105.943 131.44 106.551 131.573 107.074 131.84C107.607 132.107 108.023 132.512 108.322 133.056C108.62 133.6 108.77 134.288 108.77 135.12V140H107.234V135.296C107.234 134.475 107.031 133.856 106.626 133.44C106.231 133.024 105.671 132.816 104.946 132.816C104.402 132.816 103.927 132.923 103.522 133.136C103.116 133.349 102.802 133.664 102.578 134.08C102.364 134.496 102.258 135.013 102.258 135.632V140H100.722V128.128H102.258V133.808L101.954 133.2C102.231 132.645 102.658 132.213 103.234 131.904C103.81 131.595 104.482 131.44 105.25 131.44ZM111.612 140V131.52H113.148V140H111.612ZM112.38 129.888C112.082 129.888 111.831 129.792 111.628 129.6C111.436 129.408 111.34 129.173 111.34 128.896C111.34 128.608 111.436 128.368 111.628 128.176C111.831 127.984 112.082 127.888 112.38 127.888C112.679 127.888 112.924 127.984 113.116 128.176C113.319 128.357 113.42 128.587 113.42 128.864C113.42 129.152 113.324 129.397 113.132 129.6C112.94 129.792 112.69 129.888 112.38 129.888ZM119.793 143.2C119.014 143.2 118.257 143.088 117.521 142.864C116.796 142.651 116.204 142.341 115.745 141.936L116.481 140.752C116.876 141.093 117.361 141.36 117.937 141.552C118.513 141.755 119.116 141.856 119.745 141.856C120.748 141.856 121.484 141.621 121.953 141.152C122.422 140.683 122.657 139.968 122.657 139.008V137.216L122.817 135.536L122.737 133.84V131.52H124.193V138.848C124.193 140.341 123.82 141.44 123.073 142.144C122.326 142.848 121.233 143.2 119.793 143.2ZM119.601 139.648C118.78 139.648 118.044 139.477 117.393 139.136C116.753 138.784 116.241 138.299 115.857 137.68C115.484 137.061 115.297 136.347 115.297 135.536C115.297 134.715 115.484 134 115.857 133.392C116.241 132.773 116.753 132.293 117.393 131.952C118.044 131.611 118.78 131.44 119.601 131.44C120.326 131.44 120.988 131.589 121.585 131.888C122.182 132.176 122.657 132.624 123.009 133.232C123.372 133.84 123.553 134.608 123.553 135.536C123.553 136.453 123.372 137.216 123.009 137.824C122.657 138.432 122.182 138.891 121.585 139.2C120.988 139.499 120.326 139.648 119.601 139.648ZM119.777 138.304C120.342 138.304 120.844 138.187 121.281 137.952C121.718 137.717 122.06 137.392 122.305 136.976C122.561 136.56 122.689 136.08 122.689 135.536C122.689 134.992 122.561 134.512 122.305 134.096C122.06 133.68 121.718 133.36 121.281 133.136C120.844 132.901 120.342 132.784 119.777 132.784C119.212 132.784 118.705 132.901 118.257 133.136C117.82 133.36 117.473 133.68 117.217 134.096C116.972 134.512 116.849 134.992 116.849 135.536C116.849 136.08 116.972 136.56 117.217 136.976C117.473 137.392 117.82 137.717 118.257 137.952C118.705 138.187 119.212 138.304 119.777 138.304ZM131.656 131.44C132.349 131.44 132.957 131.573 133.48 131.84C134.013 132.107 134.429 132.512 134.728 133.056C135.027 133.6 135.176 134.288 135.176 135.12V140H133.64V135.296C133.64 134.475 133.437 133.856 133.032 133.44C132.637 133.024 132.077 132.816 131.352 132.816C130.808 132.816 130.333 132.923 129.928 133.136C129.523 133.349 129.208 133.664 128.984 134.08C128.771 134.496 128.664 135.013 128.664 135.632V140H127.128V128.128H128.664V133.808L128.36 133.2C128.637 132.645 129.064 132.213 129.64 131.904C130.216 131.595 130.888 131.44 131.656 131.44Z" fill="#8B8B8B"/>
</svg>
